<?xml version="1.0" encoding="UTF-8"?>
<svg version="1.1" xmlns="http://www.w3.org/2000/svg" width="491" height="193">
<path d="M0 0 C162.03 0 324.06 0 491 0 C491 63.69 491 127.38 491 193 C328.97 193 166.94 193 0 193 C0 129.31 0 65.62 0 0 Z " fill="#26509B" transform="translate(0,0)"/>
<path d="M0 0 C3.37177717 1.4932156 6.38313745 3.38313745 9 6 C9.49098954 9.5351247 9.18682014 10.74086238 7.0625 13.6875 C6.381875 14.450625 5.70125 15.21375 5 16 C3.41122863 19.17754275 3.72491607 22.53394243 4 26 C5.17013226 29.4203866 5.87310723 29.91540482 9 32 C13.10043483 32.58146129 16.80399225 32.62790407 20.5 30.6875 C24.0460133 26.69823504 23.31591756 21.34356483 23.3046875 16.3125 C22.88342833 11.73265666 21.30070093 8.93345643 19 5 C19.33 4.34 19.66 3.68 20 3 C20.556875 3.56847656 21.11375 4.13695312 21.6875 4.72265625 C22.450625 5.49480469 23.21375 6.26695313 24 7.0625 C24.7425 7.81660156 25.485 8.57070313 26.25 9.34765625 C28.33452997 11.35816172 30.43189233 13.26247013 32.62109375 15.15234375 C37.93032275 19.76844074 43.01457148 24.60104947 48.0625 29.5 C48.55097412 29.95681152 49.03944824 30.41362305 49.54272461 30.88427734 C50.97558677 32.22605466 52.38085617 33.59710806 53.78515625 34.96875 C54.61926025 35.76732422 55.45336426 36.56589844 56.31274414 37.38867188 C58 40 58 40 58.01171875 43.52734375 C56.90816755 47.31520869 55.83656633 48.87966716 53.02734375 51.59375 C52.20943359 52.39683594 51.39152344 53.19992188 50.54882812 54.02734375 C49.68708984 54.84332031 48.82535156 55.65929687 47.9375 56.5 C46.68549805 57.72396484 46.68549805 57.72396484 45.40820312 58.97265625 C40.98348924 63.26976732 36.44667296 67.40123747 31.77954102 71.43212891 C29.24201649 73.66782413 26.87497534 76.02953889 24.5 78.4375 C23.6440625 79.30246094 22.788125 80.16742188 21.90625 81.05859375 C21.2771875 81.69925781 20.648125 82.33992188 20 83 C19.01 82.505 19.01 82.505 18 82 C18.3609375 81.51273437 18.721875 81.02546875 19.09375 80.5234375 C23.59262055 73.65016304 24.24008999 67.075708 23 59 C20.51183494 55.00385611 19.00263259 54.30990462 14.5625 52.9375 C10.16842411 53.01458905 8.33670003 54.21941664 5 57 C3.39221241 60.21557517 3.5197831 63.51210883 4 67 C5.12612771 69.497956 6.54459668 71.66253407 8 74 C9 76.6875 9 76.6875 9 79 C6.20745758 82.95610176 2.50866521 84.4971116 -2 86 C-6.15888438 86.66767389 -9.32175483 86.3191742 -13.1875 84.5 C-21.02656356 77.5319435 -23.73009505 68.11908959 -25 58 C-25.22696398 53.38151788 -25.26998127 48.76504621 -25.29516602 44.1418457 C-25.30662424 42.68471519 -25.32697746 41.22762457 -25.35668945 39.77075195 C-25.61134997 27.23263388 -24.84959215 14.70697298 -16.5625 4.55078125 C-11.41327325 -0.5598263 -7.12029984 -1.08864088 0 0 Z " fill="#FBFCFD" transform="translate(252,31)"/>
<path d="M0 0 C-1.63630112 3.5256385 -3.73459322 6.6361203 -5.875 9.875 C-14.21413198 23.21685718 -15.77437326 37.85800776 -13.52734375 53.234375 C-11.21310576 62.82391205 -6.55284672 71.67623013 0 79 C0 79.66 0 80.32 0 81 C-3.89431805 79.42114525 -6.48198787 76.75898265 -9.359375 73.80078125 C-9.8674469 73.28750778 -10.3755188 72.77423431 -10.89898682 72.2454071 C-12.52083649 70.60580301 -14.1358566 68.95968847 -15.75 67.3125 C-17.86632731 65.15931963 -19.98592132 63.00943414 -22.109375 60.86328125 C-22.61984375 60.34713257 -23.1303125 59.83098389 -23.65625 59.29919434 C-27.12009052 55.82105201 -30.68367436 52.51737918 -34.43652344 49.35473633 C-37.47435462 46.72248691 -39.70121354 44.49393231 -40.5 40.5 C-39.54360499 35.71802494 -36.15785449 33.09407382 -32.58203125 30.0703125 C-26.84204409 25.07930297 -21.54006224 19.64732882 -16.1875 14.25 C-15.14151272 13.19898315 -14.09529022 12.14820034 -13.04882812 11.09765625 C-11.1394125 9.18014334 -9.23164532 7.2610444 -7.32495117 5.34082031 C-6.55771729 4.56834961 -5.7904834 3.79587891 -5 3 C-4.44223877 2.40026367 -3.88447754 1.80052734 -3.30981445 1.18261719 C-2 0 -2 0 0 0 Z " fill="#F8F9FB" transform="translate(220,34)"/>
<path d="M0 0 C3.38031589 1.18767855 3.93216817 1.89825225 6 5 C6.46229036 9.99273591 6.08578614 12.99990685 3 17 C-0.75047482 19.50031654 -2.55856266 19.53603554 -7 19 C-10.60521591 16.02177816 -12.79128467 13.87843794 -13.3125 9.1875 C-12.92835642 5.2692355 -11.70743683 3.78706733 -9 1 C-5.97562661 -0.5121867 -3.33758466 -0.17263369 0 0 Z " fill="#E5EAF3" transform="translate(282,142)"/>
<path d="M0 0 C2.87305972 1.40460697 4.74510999 2.74510999 7 5 C6.625 7.625 6.625 7.625 6 10 C4.68 10 3.36 10 2 10 C1.67 8.02 1.34 6.04 1 4 C-3.07065207 3.61007304 -3.07065207 3.61007304 -6.67578125 5.17578125 C-9.34350743 8.85079047 -8.45490732 13.67206226 -8 18 C-7.13539818 21.20580708 -7.13539818 21.20580708 -5 23 C-1.87364791 23.41746608 -1.87364791 23.41746608 1 23 C1.33 21.02 1.66 19.04 2 17 C3.65 17.33 5.3 17.66 7 18 C6.72253508 21.32957907 6.18903896 22.78804723 3.9375 25.3125 C0.22990698 27.44239386 -2.87155244 27.94526099 -7 27 C-10.81787564 24.87709333 -13.34949533 22.03623415 -15 18 C-15.73285105 13.31316192 -15.44402628 9.85633639 -13.25 5.625 C-8.99865067 0.66509245 -6.7342227 -0.70886555 0 0 Z " fill="#E8EDF4" transform="translate(179,134)"/>
<path d="M0 0 C0.7940625 -0.01417969 1.588125 -0.02835938 2.40625 -0.04296875 C4.5 0.1875 4.5 0.1875 6.5 2.1875 C6.88643052 5.56437584 7.00750701 8.92134759 7.15625 12.31640625 C7.32640625 13.73759766 7.32640625 13.73759766 7.5 15.1875 C8.16 15.5175 8.82 15.8475 9.5 16.1875 C9.17 17.1775 8.84 18.1675 8.5 19.1875 C7.365625 19.001875 6.23125 18.81625 5.0625 18.625 C3.886875 18.480625 2.71125 18.33625 1.5 18.1875 C1.17 18.5175 0.84 18.8475 0.5 19.1875 C-4.74050633 19.6431962 -4.74050633 19.6431962 -7.375 18.0625 C-9.04663625 15.27643958 -8.96376624 13.36761138 -8.5 10.1875 C-6.875 8.3125 -6.875 8.3125 -4.5 7.1875 C-1.25 7 -1.25 7 1.5 7.1875 C1.5 5.8675 1.5 4.5475 1.5 3.1875 C0.18 3.1875 -1.14 3.1875 -2.5 3.1875 C-2.83 4.1775 -3.16 5.1675 -3.5 6.1875 C-4.82 5.8575 -6.14 5.5275 -7.5 5.1875 C-7.125 3.25 -7.125 3.25 -6.5 1.1875 C-4.14653604 0.01076802 -2.6193967 0.02126134 0 0 Z " fill="#F0F3F8" transform="translate(197.5,141.8125)"/>
<path d="M0 0 C2.5 2.25 2.5 2.25 4 5 C4 6.32 4 7.64 4 9 C-0.29 9 -4.58 9 -9 9 C-8.01 10.65 -7.02 12.3 -6 14 C-2.57255771 14.3607834 -0.11877956 14.55938978 3 13 C2.42655063 15.86724686 2.1385485 16.8614515 0 19 C-4.19216724 19.47458497 -6.30057329 19.45614786 -9.875 17.125 C-12.78710658 14.21289342 -12.96068305 13.3997223 -13.375 9.1875 C-13.31327317 5.7986973 -12.98866791 4.98300186 -11 2 C-6.82471182 -0.78352545 -4.95378117 -0.78631447 0 0 Z " fill="#EBEFF6" transform="translate(251,142)"/>
<path d="M0 0 C1.65 0 3.3 0 5 0 C5.06058594 0.84304687 5.12117188 1.68609375 5.18359375 2.5546875 C5.26738281 3.65039062 5.35117187 4.74609375 5.4375 5.875 C5.51871094 6.96554688 5.59992188 8.05609375 5.68359375 9.1796875 C5.83001703 11.94728971 5.83001703 11.94728971 7 14 C8.65 13.67 10.3 13.34 12 13 C12.05399736 11.54207116 12.09279177 10.08357288 12.125 8.625 C12.15980469 7.40683594 12.15980469 7.40683594 12.1953125 6.1640625 C12.21370051 3.78657757 12.21370051 3.78657757 10 2 C10.66 1.34 11.32 0.68 12 0 C14.625 0.375 14.625 0.375 17 1 C17.04898437 1.98742187 17.09796875 2.97484375 17.1484375 3.9921875 C17.22320312 5.27351562 17.29796875 6.55484375 17.375 7.875 C17.44460938 9.15117187 17.51421875 10.42734375 17.5859375 11.7421875 C17.67241106 15.08061699 17.67241106 15.08061699 20 17 C19.34 17.66 18.68 18.32 18 19 C15.5 18.625 15.5 18.625 13 18 C12.34 18 11.68 18 11 18 C10.67 18.33 10.34 18.66 10 19 C6.5625 18.8125 6.5625 18.8125 3 18 C1.03950022 15.12071815 0.65698565 12.4256035 0.375 9 C0.30023438 8.154375 0.22546875 7.30875 0.1484375 6.4375 C0.01796872 4.29506522 0 2.14640371 0 0 Z " fill="#EFF2F7" transform="translate(291,142)"/>
<path d="M0 0 C0.99 0.66 1.98 1.32 3 2 C3 3.32 3 4.64 3 6 C1.68 6 0.36 6 -1 6 C-1 4.68 -1 3.36 -1 2 C-1.99 2.33 -2.98 2.66 -4 3 C-4.33 4.98 -4.66 6.96 -5 9 C-3.68 9 -2.36 9 -1 9 C-1 9.99 -1 10.98 -1 12 C-2.32 12 -3.64 12 -5 12 C-5 16.29 -5 20.58 -5 25 C-4.34 25 -3.68 25 -3 25 C-3 25.66 -3 26.32 -3 27 C-5.97 27 -8.94 27 -12 27 C-12 26.34 -12 25.68 -12 25 C-11.34 25 -10.68 25 -10 25 C-10 20.71 -10 16.42 -10 12 C-10.99 12 -11.98 12 -13 12 C-12.67 11.01 -12.34 10.02 -12 9 C-11.34 9 -10.68 9 -10 9 C-9.8453125 7.329375 -9.8453125 7.329375 -9.6875 5.625 C-9.460625 4.42875 -9.23375 3.2325 -9 2 C-5.53001271 -0.31332486 -4.07490752 -0.33957563 0 0 Z " fill="#E0E6F1" transform="translate(269,133)"/>
<path d="M0 0 C1.32 0 2.64 0 4 0 C4 0.66 4 1.32 4 2 C4.99 1.34 5.98 0.68 7 0 C9.6875 0.375 9.6875 0.375 12 1 C11.67 2.32 11.34 3.64 11 5 C10.01 5 9.02 5 8 5 C8 4.34 8 3.68 8 3 C7.34 3 6.68 3 6 3 C5.97296619 4.93742341 5.95358875 6.87495479 5.9375 8.8125 C5.92589844 9.89144531 5.91429687 10.97039062 5.90234375 12.08203125 C5.86375234 15.06512169 5.86375234 15.06512169 7 18 C4.36 18 1.72 18 -1 18 C-0.67 17.01 -0.34 16.02 0 15 C0.11829437 13.1485555 0.17514861 11.29267862 0.1875 9.4375 C0.20167969 8.46683594 0.21585937 7.49617187 0.23046875 6.49609375 C0.25207746 3.82601084 0.25207746 3.82601084 -2 2 C-1.34 1.34 -0.68 0.68 0 0 Z " fill="#F4F6FA" transform="translate(314,142)"/>
<path d="M0 0 C0.886875 0.185625 1.77375 0.37125 2.6875 0.5625 C5.85178811 0.98042484 7.94839642 0.80777742 11 0 C11.33 1.32 11.66 2.64 12 4 C10.68 4 9.36 4 8 4 C7.01 4.495 7.01 4.495 6 5 C6 8.3 6 11.6 6 15 C6.66 15.33 7.32 15.66 8 16 C8 16.66 8 17.32 8 18 C5.03 18 2.06 18 -1 18 C-1 17.34 -1 16.68 -1 16 C-0.34 16 0.32 16 1 16 C1 11.71 1 7.42 1 3 C0.34 3 -0.32 3 -1 3 C-0.67 2.01 -0.34 1.02 0 0 Z " fill="#F3F5F9" transform="translate(225,142)"/>
<path d="M0 0 C1.32 0 2.64 0 4 0 C4 0.66 4 1.32 4 2 C4.99 1.34 5.98 0.68 7 0 C9.6875 0.375 9.6875 0.375 12 1 C11.67 2.32 11.34 3.64 11 5 C8.525 4.01 8.525 4.01 6 3 C6 6.96 6 10.92 6 15 C6.66 15.33 7.32 15.66 8 16 C8 16.66 8 17.32 8 18 C5.03 18 2.06 18 -1 18 C-0.505 16.515 -0.505 16.515 0 15 C0.22325814 12.94106379 0.40705759 10.87766347 0.5625 8.8125 C0.64628906 7.72582031 0.73007813 6.63914063 0.81640625 5.51953125 C0.87699219 4.68808594 0.93757812 3.85664063 1 3 C0.34 3 -0.32 3 -1 3 C-0.67 2.01 -0.34 1.02 0 0 Z " fill="#F2F5F9" transform="translate(210,142)"/>
<path d="M0 0 C1.42857143 8.57142857 1.42857143 8.57142857 -1 12 C-6.4 12.36 -6.4 12.36 -8.875 10.875 C-10.54663625 8.08893958 -10.46376624 6.18011138 -10 3 C-7.05843777 -0.39411027 -4.30855278 -0.29376496 0 0 Z " fill="#DEE4F0" transform="translate(199,149)"/>
<path d="M0 0 C1.9375 0.8125 1.9375 0.8125 3.9375 2.8125 C4.40126812 10.11684783 4.40126812 10.11684783 1.9375 13.8125 C-2.8125 13.0625 -2.8125 13.0625 -5.0625 10.8125 C-5.62390351 3.73881579 -5.62390351 3.73881579 -3.8125 0.75 C-2.0625 -0.1875 -2.0625 -0.1875 0 0 Z " fill="#2E569F" transform="translate(279.0625,144.1875)"/>
<path d="M0 0 C7.73512476 -0.2975048 7.73512476 -0.2975048 11 2 C13.48386059 5.72579089 13.3804212 7.58711402 13 12 C11.8125 14.875 11.8125 14.875 10 17 C7.3125 17.8125 7.3125 17.8125 5 18 C5.33 17.34 5.66 16.68 6 16 C7.31169748 12.06490757 7.27179147 9.14481996 7 5 C6.34 4.34 5.68 3.68 5 3 C3.68 3 2.36 3 1 3 C0.67 2.01 0.34 1.02 0 0 Z " fill="#EEF1F7" transform="translate(275,142)"/>
<path d="M0 0 C0.33 0.66 0.66 1.32 1 2 C1.99 2.33 2.98 2.66 4 3 C4.08114106 4.77007714 4.13925505 6.54122098 4.1875 8.3125 C4.22230469 9.29863281 4.25710938 10.28476563 4.29296875 11.30078125 C4 14 4 14 2.48828125 15.85546875 C1.99714844 16.23316406 1.50601562 16.61085937 1 17 C1 16.34 1 15.68 1 15 C-0.32 14.67 -1.64 14.34 -3 14 C-3 9.71 -3 5.42 -3 1 C-2.34 1.66 -1.68 2.32 -1 3 C-0.67 2.01 -0.34 1.02 0 0 Z " fill="#2E569F" transform="translate(311,143)"/>
<path d="M0 0 C5 1 5 1 6 2 C6.16796875 3.99609375 6.16796875 3.99609375 6.1875 6.4375 C6.20167969 7.24058594 6.21585937 8.04367188 6.23046875 8.87109375 C6 11 6 11 4 13 C2.35 12.67 0.7 12.34 -1 12 C-0.67 8.04 -0.34 4.08 0 0 Z " fill="#2E569F" transform="translate(298,144)"/>
<path d="M0 0 C3.96 0 7.92 0 12 0 C11.34 0.66 10.68 1.32 10 2 C10.33 2.99 10.66 3.98 11 5 C10 6 10 6 6.625 6.3125 C3 6 3 6 1.0625 4.125 C0 2 0 2 0 0 Z " fill="#375DA3" transform="translate(242,151)"/>
<path d="M0 0 C0.99 0 1.98 0 3 0 C3 1.32 3 2.64 3 4 C3.99 4.33 4.98 4.66 6 5 C5.01 6.32 4.02 7.64 3 9 C3 8.34 3 7.68 3 7 C1.68 7 0.36 7 -1 7 C-1.04254356 5.00045254 -1.04080783 2.99958364 -1 1 C-0.67 0.67 -0.34 0.34 0 0 Z " fill="#335AA1" transform="translate(265,135)"/>
<path d="M0 0 C1.98 0 3.96 0 6 0 C6 1.65 6 3.3 6 5 C4.34385343 5.38218767 2.67542976 5.71395102 1 6 C0 5 0 5 -0.0625 2.4375 C-0.041875 1.633125 -0.02125 0.82875 0 0 Z " fill="#3058A0" transform="translate(194,152)"/>
<path d="M0 0 C1.65 0.33 3.3 0.66 5 1 C5 2.65 5 4.3 5 6 C2.36 6 -0.28 6 -3 6 C-3.33 5.34 -3.66 4.68 -4 4 C-3.01 4 -2.02 4 -1 4 C-0.67 2.68 -0.34 1.36 0 0 Z " fill="#335AA1" transform="translate(195,144)"/>
<path d="M0 0 C2.0625 0.4375 2.0625 0.4375 4 1 C4.33 2.32 4.66 3.64 5 5 C2.36 5 -0.28 5 -3 5 C-1.125 1.125 -1.125 1.125 0 0 Z " fill="#375EA3" transform="translate(245,144)"/>
<path d="M0 0 C-0.33 1.32 -0.66 2.64 -1 4 C-3.31 3.34 -5.62 2.68 -8 2 C-6.04981346 -1.90037307 -3.74298737 -0.88649701 0 0 Z " fill="#EBEEF5" transform="translate(237,143)"/>
<path d="M0 0 C0.99 0.33 1.98 0.66 3 1 C2.34 2.65 1.68 4.3 1 6 C-0.32 5.67 -1.64 5.34 -3 5 C-2.625 3.0625 -2.625 3.0625 -2 1 C-1.34 0.67 -0.68 0.34 0 0 Z " fill="#E5EAF3" transform="translate(193,142)"/>
<path d="M0 0 C1.32 0.33 2.64 0.66 4 1 C4 2.32 4 3.64 4 5 C2.68 5 1.36 5 0 5 C0 3.35 0 1.7 0 0 Z " fill="#F0F3F8" transform="translate(268,134)"/>
<path d="M0 0 C0.99 0.33 1.98 0.66 3 1 C2.67 2.32 2.34 3.64 2 5 C1.01 5 0.02 5 -1 5 C-0.67 3.35 -0.34 1.7 0 0 Z " fill="#E5EAF3" transform="translate(323,142)"/>
</svg>
