<?xml version="1.0" encoding="UTF-8"?>
<svg version="1.1" xmlns="http://www.w3.org/2000/svg" width="491" height="193">
<path d="M0 0 C162.03 0 324.06 0 491 0 C491 63.69 491 127.38 491 193 C328.97 193 166.94 193 0 193 C0 129.31 0 65.62 0 0 Z " fill="#0291D3" transform="translate(0,0)"/>
<path d="M0 0 C1.01938156 0.00636726 1.01938156 0.00636726 2.05935669 0.01286316 C4.20926174 0.02952609 6.35819549 0.06715159 8.5078125 0.10546875 C9.9739447 0.12053175 11.44009174 0.13421732 12.90625 0.14648438 C16.48208125 0.17938795 20.05735191 0.23108212 23.6328125 0.29296875 C23.6328125 3.92296875 23.6328125 7.55296875 23.6328125 11.29296875 C22.79508301 11.31278809 21.95735352 11.33260742 21.09423828 11.35302734 C17.98915416 11.43107487 14.88446711 11.5177651 11.77978516 11.61035156 C9.77394279 11.66750911 7.76782332 11.71465471 5.76171875 11.76171875 C3.87646484 11.81972656 3.87646484 11.81972656 1.953125 11.87890625 C0.79055176 11.91032715 -0.37202148 11.94174805 -1.56982422 11.97412109 C-4.50375232 12.01454744 -4.50375232 12.01454744 -6.3671875 14.29296875 C-6.07735481 17.59980341 -6.07735481 17.59980341 -4.3671875 20.29296875 C-2.2963403 20.45139525 -0.22040721 20.54421297 1.85546875 20.609375 C3.74555664 20.6722168 3.74555664 20.6722168 5.67382812 20.73632812 C7.01431986 20.77614471 8.3548147 20.81585689 9.6953125 20.85546875 C11.03972773 20.89864917 12.3841291 20.94226331 13.72851562 20.98632812 C17.0298359 21.09282233 20.33123486 21.19483335 23.6328125 21.29296875 C23.6328125 24.92296875 23.6328125 28.55296875 23.6328125 32.29296875 C14.0628125 32.62296875 4.4928125 32.95296875 -5.3671875 33.29296875 C-6.82033414 37.89829264 -6.82033414 37.89829264 -5.3671875 40.29296875 C4.2028125 40.62296875 13.7728125 40.95296875 23.6328125 41.29296875 C23.6328125 44.92296875 23.6328125 48.55296875 23.6328125 52.29296875 C19.34617252 52.39247115 15.06015919 52.46473185 10.77270508 52.51269531 C9.31685666 52.53270697 7.86108756 52.55992552 6.40551758 52.59472656 C-8.78374988 52.94857041 -8.78374988 52.94857041 -14.3671875 48.29296875 C-18.06971006 43.95943984 -18.93415061 38.83020604 -18.71484375 33.26171875 C-18.26357996 30.70624742 -16.94668148 29.30323381 -15.3671875 27.29296875 C-16.04237204 24.68826544 -16.04237204 24.68826544 -17.3671875 22.29296875 C-18.93709628 17.5832424 -19.68120907 12.02296184 -17.4609375 7.41015625 C-12.78002981 1.43899837 -7.30057822 -0.09050304 0 0 Z " fill="#F6FBFD" transform="translate(268.3671875,69.70703125)"/>
<path d="M0 0 C1.40882874 0.02009834 2.81768521 0.03834322 4.2265625 0.0546875 C7.65175664 0.10160797 11.07551524 0.16725223 14.5 0.25 C14.5 3.88 14.5 7.51 14.5 11.25 C13.66227051 11.26981934 12.82454102 11.28963867 11.96142578 11.31005859 C8.85634166 11.38810612 5.75165461 11.47479635 2.64697266 11.56738281 C0.64113029 11.62454036 -1.36498918 11.67168596 -3.37109375 11.71875 C-5.25634766 11.77675781 -5.25634766 11.77675781 -7.1796875 11.8359375 C-8.34226074 11.8673584 -9.50483398 11.8987793 -10.70263672 11.93115234 C-13.63656482 11.97157869 -13.63656482 11.97157869 -15.5 14.25 C-15.21016731 17.55683466 -15.21016731 17.55683466 -13.5 20.25 C-11.4291528 20.4084265 -9.35321971 20.50124422 -7.27734375 20.56640625 C-5.38725586 20.62924805 -5.38725586 20.62924805 -3.45898438 20.69335938 C-2.11849264 20.73317596 -0.7779978 20.77288814 0.5625 20.8125 C1.90691523 20.85568042 3.2513166 20.89929456 4.59570312 20.94335938 C7.8970234 21.04985358 11.19842236 21.1518646 14.5 21.25 C14.5 24.55 14.5 27.85 14.5 31.25 C13.66227051 31.26981934 12.82454102 31.28963867 11.96142578 31.31005859 C8.85634166 31.38810612 5.75165461 31.47479635 2.64697266 31.56738281 C0.64113029 31.62454036 -1.36498918 31.67168596 -3.37109375 31.71875 C-5.25634766 31.77675781 -5.25634766 31.77675781 -7.1796875 31.8359375 C-8.92354736 31.88306885 -8.92354736 31.88306885 -10.70263672 31.93115234 C-13.63656482 31.97157869 -13.63656482 31.97157869 -15.5 34.25 C-15.17 36.23 -14.84 38.21 -14.5 40.25 C-4.93 40.58 4.64 40.91 14.5 41.25 C14.5 44.88 14.5 48.51 14.5 52.25 C10.21336002 52.3495024 5.92734669 52.4217631 1.63989258 52.46972656 C0.18404416 52.48973822 -1.27172494 52.51695677 -2.72729492 52.55175781 C-17.82899294 52.90356167 -17.82899294 52.90356167 -23.5 48.25 C-27.30691072 43.36934523 -27.94323679 39.705359 -27.93359375 33.58203125 C-27.40987071 30.7652506 -26.45100169 29.32502625 -24.5 27.25 C-23.84 27.25 -23.18 27.25 -22.5 27.25 C-22.5 26.59 -22.5 25.93 -22.5 25.25 C-23.49 24.92 -24.48 24.59 -25.5 24.25 C-28.06490955 19.93015234 -28.17162476 15.1235848 -27.5 10.25 C-25.40105473 5.6148292 -22.74180569 3.2678234 -18.16601562 1.0637207 C-12.32262583 -0.71979745 -6.05231059 -0.15066814 0 0 Z " fill="#F8FCFD" transform="translate(135.5,69.75)"/>
<path d="M0 0 C3.63 0 7.26 0 11 0 C11 6.6 11 13.2 11 20 C17.6 20 24.2 20 31 20 C31 13.4 31 6.8 31 0 C34.63 0 38.26 0 42 0 C42 17.16 42 34.32 42 52 C38.37 52 34.74 52 31 52 C31 45.4 31 38.8 31 32 C24.4 32 17.8 32 11 32 C11 38.6 11 45.2 11 52 C7.37 52 3.74 52 0 52 C0 34.84 0 17.68 0 0 Z " fill="#F4FAFD" transform="translate(340,70)"/>
<path d="M0 0 C4.3049777 -0.07451364 8.60960734 -0.12877223 12.91503906 -0.16479492 C14.37767075 -0.17982196 15.84025782 -0.20024955 17.30273438 -0.22631836 C19.4128728 -0.26297267 21.52241226 -0.27978676 23.6328125 -0.29296875 C24.90012207 -0.3086792 26.16743164 -0.32438965 27.47314453 -0.34057617 C32.73053579 0.16711183 35.93481084 2.07374856 39.875 5.5 C42.70244438 9.16012217 42.63914548 12.88825503 42.42578125 17.375 C41.66532532 22.06331547 39.41666679 24.7550504 35.9375 27.8125 C32.82837737 29.71809129 30.11662293 30.14888349 26.55078125 30.31640625 C25.78677002 30.35451416 25.02275879 30.39262207 24.2355957 30.43188477 C23.27097412 30.47498779 22.30635254 30.51809082 21.3125 30.5625 C16.7028125 30.7790625 16.7028125 30.7790625 12 31 C11.67 37.6 11.34 44.2 11 51 C7.37 51 3.74 51 0 51 C-0.10825949 47.45750883 -0.18744405 43.91834751 -0.25 40.375 C-0.28351563 39.37597656 -0.31703125 38.37695312 -0.3515625 37.34765625 C-0.43035222 31.39903249 -0.23852011 27.57010501 4 23 C8.4060222 19.21997003 13.15080706 19.5251191 18.6875 19.4375 C20.39993365 19.40312401 22.1122284 19.36055299 23.82421875 19.30859375 C24.57791748 19.29626709 25.33161621 19.28394043 26.1081543 19.27124023 C28.24139685 19.15833332 28.24139685 19.15833332 30 17 C29.71016731 13.69316534 29.71016731 13.69316534 28 11 C25.9291528 10.8415735 23.85321971 10.74875578 21.77734375 10.68359375 C19.88725586 10.62075195 19.88725586 10.62075195 17.95898438 10.55664062 C16.61849264 10.51682404 15.2779978 10.47711186 13.9375 10.4375 C12.59308477 10.39431958 11.2486834 10.35070544 9.90429688 10.30664062 C6.6029766 10.20014642 3.30157764 10.0981354 0 10 C0 6.7 0 3.4 0 0 Z " fill="#FAFDFE" transform="translate(153,71)"/>
<path d="M0 0 C1.87075195 0.04060547 1.87075195 0.04060547 3.77929688 0.08203125 C6.83386235 0.15225115 9.88474403 0.25055401 12.9375 0.375 C12.9375 3.675 12.9375 6.975 12.9375 10.375 C10.53404297 10.41367188 10.53404297 10.41367188 8.08203125 10.453125 C5.97132709 10.50941044 3.86065106 10.56675768 1.75 10.625 C0.69490234 10.63917969 -0.36019531 10.65335938 -1.44726562 10.66796875 C-7.65025716 10.83203955 -7.65025716 10.83203955 -13.23828125 13.296875 C-16.5385752 17.05652464 -16.27831539 20.38883511 -16.3125 25.1875 C-16.333125 25.89970703 -16.35375 26.61191406 -16.375 27.34570312 C-16.4086086 31.88706543 -15.88477941 34.77864881 -13.0625 38.375 C-10.49038678 39.66105661 -8.49343034 39.58543941 -5.6171875 39.69140625 C-4.54082031 39.73330078 -3.46445312 39.77519531 -2.35546875 39.81835938 C-1.22753906 39.85767578 -0.09960938 39.89699219 1.0625 39.9375 C2.19816406 39.98068359 3.33382813 40.02386719 4.50390625 40.06835938 C7.31495261 40.17465945 10.1262099 40.27535397 12.9375 40.375 C12.9375 44.005 12.9375 47.635 12.9375 51.375 C9.10373358 51.45637712 5.27171671 51.51568689 1.4375 51.5625 C0.35984375 51.58763672 -0.7178125 51.61277344 -1.828125 51.63867188 C-9.24580131 51.70651648 -15.26051745 51.362272 -21.3046875 46.61328125 C-28.11956481 38.57563887 -28.76295427 30.5418311 -28.4296875 20.296875 C-27.82614988 13.85057957 -25.95738004 9.19336339 -21.2890625 4.6484375 C-14.44262607 -0.46671615 -8.31637348 -0.34485759 0 0 Z " fill="#FAFDFE" transform="translate(323.0625,70.625)"/>
<path d="M0 0 C11.22 0 22.44 0 34 0 C34 3.63 34 7.26 34 11 C30.37 11 26.74 11 23 11 C23 24.53 23 38.06 23 52 C19.37 52 15.74 52 12 52 C12 38.47 12 24.94 12 11 C8.04 11 4.08 11 0 11 C0 7.37 0 3.74 0 0 Z " fill="#F6FBFD" transform="translate(213,70)"/>
<path d="M0 0 C2.24940295 -0.08119503 4.49964871 -0.13927819 6.75 -0.1875 C8.00296875 -0.22230469 9.2559375 -0.25710937 10.546875 -0.29296875 C14.36021392 0.03056114 15.46029796 0.2044223 18 3 C18.42570937 5.91428143 18.60485673 8.46738104 18.609375 11.38671875 C18.63417938 12.61223198 18.63417938 12.61223198 18.65948486 13.86250305 C18.7080534 16.47091114 18.72935459 19.07873594 18.75 21.6875 C18.77815241 23.4564097 18.80807881 25.22529211 18.83984375 26.99414062 C18.91381428 31.32937906 18.96333439 35.66429203 19 40 C20.32 40.66 21.64 41.32 23 42 C22.35039307 42.4962085 21.70078613 42.99241699 21.03149414 43.50366211 C18.28963035 46.87291547 18.44985867 49.78534196 18.49609375 53.94140625 C18.48667252 54.70549301 18.47725128 55.46957977 18.46754456 56.25682068 C18.43891429 58.69232136 18.43581609 61.12684466 18.4375 63.5625 C18.43389438 66.00158271 18.42439821 68.4399568 18.39674377 70.87889099 C18.37993137 72.39463817 18.37709894 73.91061928 18.38975525 75.42640686 C18.33862703 80.53365613 18.33862703 80.53365613 16.60180664 82.92553711 C13.10186261 85.27323619 10.57022858 85.10362969 6.375 85.0625 C5.18648438 85.05347656 3.99796875 85.04445313 2.7734375 85.03515625 C1.40058594 85.01775391 1.40058594 85.01775391 0 85 C0 84.01 0 83.02 0 82 C1.7015625 81.7834375 1.7015625 81.7834375 3.4375 81.5625 C6.80777201 81.38828522 6.80777201 81.38828522 8 80 C8.09819519 77.61210615 8.13712492 75.24786849 8.140625 72.859375 C8.15896036 71.3814951 8.17853135 69.9036301 8.19921875 68.42578125 C8.22814339 66.09072922 8.24999861 63.75662927 8.25048828 61.42138672 C8.25383256 59.17068591 8.2884434 56.92219142 8.328125 54.671875 C8.3210553 53.97898376 8.3139856 53.28609253 8.30670166 52.57220459 C8.40621531 48.58885016 8.91381518 47.10101801 11.54199219 44.02050781 C12.35313477 43.35374023 13.16427734 42.68697266 14 42 C13.18958252 41.33395752 12.37916504 40.66791504 11.54418945 39.98168945 C8.46998524 36.37884366 8.26737889 33.82204578 8.29296875 29.29296875 C8.27784744 28.56757401 8.26272614 27.84217926 8.24714661 27.09480286 C8.20437173 24.79204987 8.19544259 22.49061016 8.1875 20.1875 C8.16434739 18.62040804 8.13898044 17.05334714 8.11132812 15.48632812 C8.04857806 11.65743655 8.01616299 7.82936016 8 4 C5.36 3.34 2.72 2.68 0 2 C0 1.34 0 0.68 0 0 Z " fill="#ECF6FB" transform="translate(391,54)"/>
<path d="M0 0 C1.26328125 0.02707031 2.5265625 0.05414063 3.828125 0.08203125 C4.79234375 0.11683594 5.7565625 0.15164062 6.75 0.1875 C6.75 0.8475 6.75 1.5075 6.75 2.1875 C4.11 2.8475 1.47 3.5075 -1.25 4.1875 C-1.25616333 5.63987061 -1.25616333 5.63987061 -1.26245117 7.12158203 C-1.28431893 10.7339307 -1.33868513 14.34520187 -1.40258789 17.95703125 C-1.42570185 19.51649605 -1.4401481 21.07611548 -1.44555664 22.63574219 C-1.45489571 24.88573832 -1.49598512 27.13332478 -1.54296875 29.3828125 C-1.53706978 30.41911301 -1.53706978 30.41911301 -1.53105164 31.47634888 C-1.69708789 37.05705681 -3.5035665 39.35503149 -7.25 43.1875 C-6.43885742 43.69128174 -5.62771484 44.19506348 -4.79199219 44.71411133 C-1.98086543 47.44937114 -1.65288383 48.79596442 -1.55670166 52.64640808 C-1.56377136 53.3444606 -1.57084106 54.04251312 -1.578125 54.76171875 C-1.56537537 55.48615677 -1.55262573 56.21059479 -1.53948975 56.95698547 C-1.50323524 59.2633907 -1.50048101 61.56833504 -1.5 63.875 C-1.4784079 66.19183261 -1.45000054 68.50844337 -1.41766357 70.82514954 C-1.39985666 72.26516851 -1.38961315 73.70530399 -1.38751221 75.14543152 C-1.65733116 78.44900327 -1.65733116 78.44900327 -0.25 81.1875 C2.07817964 81.55510731 4.4118385 81.88991581 6.75 82.1875 C6.75 83.1775 6.75 84.1675 6.75 85.1875 C4.66695462 85.24168326 2.58350232 85.28037551 0.5 85.3125 C-0.66015625 85.33570313 -1.8203125 85.35890625 -3.015625 85.3828125 C-6.09681133 85.19675052 -7.7285909 84.90445953 -10.25 83.1875 C-11.79007975 80.10734049 -11.40682433 76.85758694 -11.42578125 73.4765625 C-11.44897922 71.90623659 -11.47309655 70.33592404 -11.49804688 68.765625 C-11.53316792 66.28799496 -11.5625089 63.81085654 -11.57592773 61.33300781 C-11.59140866 58.94275302 -11.63161503 56.55393691 -11.67578125 54.1640625 C-11.67387283 53.42539948 -11.67196442 52.68673645 -11.66999817 51.9256897 C-11.75548425 48.32827878 -11.97846384 46.52074152 -14.28588867 43.68896484 C-14.93404541 43.19348145 -15.58220215 42.69799805 -16.25 42.1875 C-15.59966797 41.6912915 -14.94933594 41.19508301 -14.27929688 40.68383789 C-11.53698538 37.31038564 -11.71727242 34.40324163 -11.78125 30.24609375 C-11.77420044 29.48200699 -11.76715088 28.71792023 -11.7598877 27.93067932 C-11.7378662 25.49511081 -11.74085884 23.06063899 -11.75 20.625 C-11.76202215 17.41476952 -11.74840379 14.20617966 -11.71875 10.99609375 C-11.73006958 10.25854355 -11.74138916 9.52099335 -11.75305176 8.76109314 C-11.72070036 5.49362567 -11.69819233 3.6743088 -9.43652344 1.21777344 C-6.24047375 -0.2881812 -3.507061 -0.09741836 0 0 Z " fill="#ECF6FB" transform="translate(92.25,53.8125)"/>
<path d="M0 0 C0.99 0 1.98 0 3 0 C3 3.3 3 6.6 3 10 C3.83249268 9.98428955 4.66498535 9.9685791 5.52270508 9.95239258 C8.61447856 9.90123358 11.70603618 9.8636352 14.7980957 9.83520508 C16.79327701 9.81271667 18.78826213 9.77459802 20.78320312 9.73632812 C22.03681641 9.72666016 23.29042969 9.71699219 24.58203125 9.70703125 C25.73936768 9.6913208 26.8967041 9.67561035 28.08911133 9.65942383 C31 10 31 10 32.9128418 11.3581543 C34 13 34 13 33.8125 15.5625 C33 18 33 18 31 20 C29.12402344 20.25537109 29.12402344 20.25537109 26.859375 20.2734375 C26.03566406 20.2940625 25.21195313 20.3146875 24.36328125 20.3359375 C22.63681538 20.36174416 20.91022048 20.38011281 19.18359375 20.390625 C13.6553422 20.54538165 10.36885731 21.27964495 6 25 C4.26509754 27.58443323 4.26509754 27.58443323 3 30 C0.12981559 31.43509221 -2.33543723 31.11158506 -5.5390625 31.09765625 C-6.84101563 31.09443359 -8.14296875 31.09121094 -9.484375 31.08789062 C-10.86458399 31.07953466 -12.24479232 31.07106971 -13.625 31.0625 C-15.01301926 31.05748501 -16.40104022 31.0529221 -17.7890625 31.04882812 C-21.19275132 31.03700976 -24.59635439 31.02053434 -28 31 C-28 30.67 -28 30.34 -28 30 C-18.76 30 -9.52 30 0 30 C0 26.7 0 23.4 0 20 C-0.83249268 20.01571045 -1.66498535 20.0314209 -2.52270508 20.04760742 C-5.61447856 20.09876642 -8.70603618 20.1363648 -11.7980957 20.16479492 C-13.79327701 20.18728333 -15.78826213 20.22540198 -17.78320312 20.26367188 C-19.03681641 20.27333984 -20.29042969 20.28300781 -21.58203125 20.29296875 C-22.73936768 20.3086792 -23.8967041 20.32438965 -25.08911133 20.34057617 C-28 20 -28 20 -29.9128418 18.6418457 C-31 17 -31 17 -30.8125 14.4375 C-30 12 -30 12 -28 10 C-25.20263672 9.77294922 -25.20263672 9.77294922 -21.6796875 9.8046875 C-19.79443359 9.81435547 -19.79443359 9.81435547 -17.87109375 9.82421875 C-15.89302734 9.84935547 -15.89302734 9.84935547 -13.875 9.875 C-12.53516279 9.88503017 -11.19531848 9.89415596 -9.85546875 9.90234375 C-6.57013427 9.92597925 -3.28515535 9.95892766 0 10 C0 6.7 0 3.4 0 0 Z " fill="#1799D6" transform="translate(150,71)"/>
<path d="M0 0 C3.63 0 7.26 0 11 0 C11 17.16 11 34.32 11 52 C7.37 52 3.74 52 0 52 C0 34.84 0 17.68 0 0 Z " fill="#F7FBFD" transform="translate(198,70)"/>
</svg>
