<?xml version="1.0" encoding="UTF-8"?>
<svg version="1.1" xmlns="http://www.w3.org/2000/svg" width="491" height="193">
<path d="M0 0 C162.03 0 324.06 0 491 0 C491 63.69 491 127.38 491 193 C328.97 193 166.94 193 0 193 C0 129.31 0 65.62 0 0 Z " fill="#08477D" transform="translate(0,0)"/>
<path d="M0 0 C4.29 0 8.58 0 13 0 C13 10.89 13 21.78 13 33 C13.66 33 14.32 33 15 33 C15.24878906 32.44183594 15.49757812 31.88367188 15.75390625 31.30859375 C17.21614398 28.5995577 18.96844013 26.4303568 20.9375 24.0625 C21.73414063 23.10214844 22.53078125 22.14179687 23.3515625 21.15234375 C26.6171448 17.2570586 29.89708529 13.37370703 33.19311523 9.50415039 C35.2342339 7.10537574 37.13408087 4.79133487 38.83984375 2.13671875 C41 0 41 0 44.671875 -0.48828125 C46.0321116 -0.4552658 47.39192338 -0.39593571 48.75 -0.3125 C49.44738281 -0.28994141 50.14476562 -0.26738281 50.86328125 -0.24414062 C52.57644935 -0.18547048 54.28850623 -0.09579256 56 0 C51.93475527 5.76735939 47.38468231 10.93277233 42.6015625 16.11328125 C39.22622867 19.85858411 36.06117166 23.75301978 32.91015625 27.6875 C31 30 31 30 29.18359375 31.5625 C27.78475198 32.93353703 27.78475198 32.93353703 28.08984375 34.890625 C33.13449041 46.58208078 45.24890558 56.54579861 56.62890625 61.6171875 C61.40953142 63.36137995 65.89514305 63.40850832 70.9375 63.3125 C71.77990234 63.31572266 72.62230469 63.31894531 73.49023438 63.32226562 C79.25565655 63.27344373 84.41213231 62.41529242 90 61 C91.61989062 64.54351073 92.10414268 67.12719419 92 71 C84.47802506 72.82357267 77.28847259 73.36559529 69.5625 73.375 C67.97985352 73.41173828 67.97985352 73.41173828 66.36523438 73.44921875 C52.17134337 73.50162696 40.42012069 67.55990436 30.375 57.75 C17.67218365 44.52465646 17.67218365 44.52465646 15 37 C14.34 37 13.68 37 13 37 C13 48.55 13 60.1 13 72 C8.71 72 4.42 72 0 72 C0 48.24 0 24.48 0 0 Z " fill="#F7F9FB" transform="translate(145,78)"/>
<path d="M0 0 C4.03712798 2.37875384 6.34057941 4.7660181 8.3515625 9.05078125 C8.76335913 12.42501689 8.70065246 15.76921272 8.64453125 19.1640625 C8.64028641 20.13361374 8.63604156 21.10316498 8.63166809 22.10209656 C8.6149165 25.18944425 8.57727039 28.27613187 8.5390625 31.36328125 C8.52401113 33.46027701 8.51032352 35.55728303 8.49804688 37.65429688 C8.46502442 42.78671148 8.41326597 47.91863456 8.3515625 53.05078125 C4.0615625 53.05078125 -0.2284375 53.05078125 -4.6484375 53.05078125 C-4.66302002 51.85477295 -4.67760254 50.65876465 -4.69262695 49.42651367 C-4.75056336 44.9926145 -4.82779624 40.55922567 -4.91088867 36.12573242 C-4.94416 34.20622027 -4.97218504 32.28660977 -4.99487305 30.36694336 C-5.02837871 27.60878553 -5.08069153 24.85153082 -5.13671875 22.09375 C-5.14310867 21.23428268 -5.1494986 20.37481537 -5.15608215 19.48930359 C-5.18577339 18.28839836 -5.18577339 18.28839836 -5.21606445 17.06323242 C-5.23271904 16.00733162 -5.23271904 16.00733162 -5.24971008 14.93009949 C-5.76881571 12.48340373 -6.70186095 11.57902395 -8.6484375 10.05078125 C-12.94531596 9.2413222 -17.57847817 9.08009892 -21.59765625 10.96484375 C-25.13648384 13.72816 -26.94914742 16.98153187 -28.6484375 21.05078125 C-29.14712758 24.71883191 -29.14712758 24.71883191 -29.16015625 28.63671875 C-29.17810745 29.3385025 -29.19605865 30.04028625 -29.21455383 30.76333618 C-29.26832797 32.98409178 -29.30244443 35.20463665 -29.3359375 37.42578125 C-29.36913987 38.94013329 -29.40363221 40.45445763 -29.43945312 41.96875 C-29.52403331 45.66255799 -29.591001 49.35644004 -29.6484375 53.05078125 C-33.9384375 53.05078125 -38.2284375 53.05078125 -42.6484375 53.05078125 C-42.9784375 38.53078125 -43.3084375 24.01078125 -43.6484375 9.05078125 C-46.2884375 8.72078125 -48.9284375 8.39078125 -51.6484375 8.05078125 C-51.6484375 5.41078125 -51.6484375 2.77078125 -51.6484375 0.05078125 C-44.7184375 0.05078125 -37.7884375 0.05078125 -30.6484375 0.05078125 C-30.3184375 2.36078125 -29.9884375 4.67078125 -29.6484375 7.05078125 C-28.7821875 6.28765625 -27.9159375 5.52453125 -27.0234375 4.73828125 C-19.57531122 -1.82316333 -9.37059808 -3.35848869 0 0 Z " fill="#F9FAFC" transform="translate(291.6484375,96.94921875)"/>
<path d="M0 0 C0 6.27 0 12.54 0 19 C5.28 19 10.56 19 16 19 C16 21.97 16 24.94 16 28 C10.72 28 5.44 28 0 28 C0.096956 32.36046831 0.19969259 36.71998999 0.31738281 41.07983398 C0.35565347 42.56282212 0.39050978 44.04590248 0.421875 45.52905273 C0.467568 47.66163072 0.52555338 49.79357491 0.5859375 51.92578125 C0.63306885 53.85031128 0.63306885 53.85031128 0.68115234 55.8137207 C0.76379228 59.15387459 0.76379228 59.15387459 3 62 C6.11610554 62.58592634 6.11610554 62.58592634 9.625 62.6875 C10.81351562 62.75324219 12.00203125 62.81898438 13.2265625 62.88671875 C14.14179688 62.92410156 15.05703125 62.96148437 16 63 C16.495 67.455 16.495 67.455 17 72 C12.6732881 73.04787554 8.42981251 73.21730766 4 73.25 C3.30132812 73.270625 2.60265625 73.29125 1.8828125 73.3125 C-2.64088762 73.34664113 -5.49128636 72.89956197 -9 70 C-13.04102491 65.05920836 -13.55724642 61.64447783 -13.390625 55.5390625 C-13.38496521 54.74849457 -13.37930542 53.95792664 -13.37347412 53.1434021 C-13.35121487 50.63663273 -13.30104153 48.13133187 -13.25 45.625 C-13.22992133 43.9179895 -13.21167296 42.21095643 -13.1953125 40.50390625 C-13.15138484 36.33537804 -13.08243296 32.16793736 -13 28 C-16.63 28 -20.26 28 -24 28 C-24 25.03 -24 22.06 -24 19 C-20.37 19 -16.74 19 -13 19 C-13 13.39 -13 7.78 -13 2 C-5 0 -5 0 0 0 Z " fill="#FAFBFC" transform="translate(328,78)"/>
<path d="M0 0 C3.6565948 3.23367903 6.44717061 6.34151184 8 11 C8.07029121 13.57265818 8.09370832 16.11641431 8.0625 18.6875 C8.05798828 19.38939453 8.05347656 20.09128906 8.04882812 20.81445312 C8.03706927 22.54300538 8.01913454 24.27151365 8 26 C-3.72098848 26.10709533 -15.31556633 25.99140649 -27 25 C-27 22.36 -27 19.72 -27 17 C-19.74 17 -12.48 17 -5 17 C-6.34341741 10.78502062 -6.34341741 10.78502062 -10 7 C-14.19570596 4.90214702 -19.44220784 5.45233472 -24 6 C-27.50031684 8.52022813 -29.37948045 11.05438719 -31 15 C-31.67401667 21.93840693 -31.04242267 28.36212631 -29 35 C-34.06673017 33.41664682 -37.9509474 30.32903278 -42 27 C-42.56460938 26.53722656 -43.12921875 26.07445313 -43.7109375 25.59765625 C-45.93193502 22.84496538 -45.52443922 20.10392638 -45.41015625 16.6953125 C-44.3549327 9.76098632 -40.26530559 4.41331918 -34.7890625 0.21875 C-24.80804315 -6.58054702 -10.35622455 -6.12884764 0 0 Z " fill="#F8F9FB" transform="translate(231,100)"/>
<path d="M0 0 C2.5575 0.226875 5.115 0.45375 7.75 0.6875 C7.75 6.9575 7.75 13.2275 7.75 19.6875 C6.1 19.6875 4.45 19.6875 2.75 19.6875 C2.42 18.0375 2.09 16.3875 1.75 14.6875 C0.925 15.5125 0.1 16.3375 -0.75 17.1875 C-3.41275632 19.4489318 -5.13440321 20.03105513 -8.625 20 C-9.82125 19.896875 -11.0175 19.79375 -12.25 19.6875 C-12.25 18.3675 -12.25 17.0475 -12.25 15.6875 C-8.785 15.1925 -8.785 15.1925 -5.25 14.6875 C-5.25 14.0275 -5.25 13.3675 -5.25 12.6875 C-6.219375 12.213125 -7.18875 11.73875 -8.1875 11.25 C-11.25 9.6875 -11.25 9.6875 -12.25 8.6875 C-12.5625 5.8125 -12.5625 5.8125 -12.25 2.6875 C-8.79825602 -1.2483847 -4.77321249 -0.47510697 0 0 Z " fill="#104C81" transform="translate(260.25,51.3125)"/>
<path d="M0 0 C1.54300781 -0.02513672 1.54300781 -0.02513672 3.1171875 -0.05078125 C6.54449466 0.36316624 8.36991572 1.26298609 11.125 3.3125 C13.125 6.3125 13.125 6.3125 13.125 12.3125 C5.865 12.3125 -1.395 12.3125 -8.875 12.3125 C-8.875 14.9525 -8.875 17.5925 -8.875 20.3125 C-10.525 20.9725 -12.175 21.6325 -13.875 22.3125 C-14.41284659 15.14121218 -14.48163634 9.84266704 -10.26171875 3.8359375 C-7.05254338 0.31036456 -4.55514214 0.01703919 0 0 Z " fill="#144F83" transform="translate(212.875,104.6875)"/>
<path d="M0 0 C2.875 1.3125 2.875 1.3125 5 4 C5.89674917 8.38260871 6.2838771 12.88431521 3.890625 16.828125 C1.25306386 19.29552091 -1.11552185 20.01991756 -4.625 20.625 C-8 20 -8 20 -10.4375 18.125 C-12.64811857 13.70376285 -13.04811633 9.84356791 -12 5 C-9.1432216 0.59743055 -5.10755377 -0.97804221 0 0 Z " fill="#E9EFF3" transform="translate(324,51)"/>
<path d="M0 0 C1.65 0 3.3 0 5 0 C5.33 6.93 5.66 13.86 6 21 C8.64 21 11.28 21 14 21 C15.58403524 19.41596476 15.21974935 17.7228362 15.31640625 15.52734375 C15.35830078 14.62822266 15.40019531 13.72910156 15.44335938 12.80273438 C15.48267578 11.85720703 15.52199219 10.91167969 15.5625 9.9375 C15.60568359 8.98810547 15.64886719 8.03871094 15.69335938 7.06054688 C15.79979276 4.70718647 15.90181008 2.35371646 16 0 C17.65 0 19.3 0 21 0 C21.08138426 2.87557703 21.14067851 5.74882262 21.1875 8.625 C21.21263672 9.43324219 21.23777344 10.24148437 21.26367188 11.07421875 C21.32554399 16.14773242 20.85089713 19.61400441 18 24 C13.87636612 26.59199844 9.71694402 26.44923276 5 26 C2.56880377 24.12984906 1.35930827 22.71861655 0 20 C-0.08372659 18.47851674 -0.10730027 16.95344222 -0.09765625 15.4296875 C-0.09443359 14.53378906 -0.09121094 13.63789062 -0.08789062 12.71484375 C-0.07951172 11.77769531 -0.07113281 10.84054688 -0.0625 9.875 C-0.05798828 8.93011719 -0.05347656 7.98523437 -0.04882812 7.01171875 C-0.03702357 4.67441613 -0.02055759 2.33723939 0 0 Z " fill="#C1D1DE" transform="translate(145,45)"/>
<path d="M0 0 C2.31 0 4.62 0 7 0 C7 0.66 7 1.32 7 2 C7.99 1.34 8.98 0.68 10 0 C13.5625 0.1875 13.5625 0.1875 17 1 C19.52775351 4.79163027 19.22443035 7.80874031 19.125 12.1875 C19.11597656 12.93708984 19.10695312 13.68667969 19.09765625 14.45898438 C19.07412578 16.30612654 19.03825561 18.15310412 19 20 C17.35 20 15.7 20 14 20 C14 14.72 14 9.44 14 4 C12.35 4.33 10.7 4.66 9 5 C7.58365167 7.83269666 7.6536995 10.47466438 7.4375 13.625 C7.35371094 14.81351563 7.26992187 16.00203125 7.18359375 17.2265625 C7.12300781 18.14179687 7.06242188 19.05703125 7 20 C5.68 20 4.36 20 3 20 C2.92652344 18.28490234 2.92652344 18.28490234 2.8515625 16.53515625 C2.77654811 15.04424527 2.70099972 13.55336108 2.625 12.0625 C2.5940625 11.30775391 2.563125 10.55300781 2.53125 9.77539062 C2.4273685 7.84492605 2.22104386 5.92057919 2 4 C1.34 3.67 0.68 3.34 0 3 C0 2.01 0 1.02 0 0 Z " fill="#EEF2F6" transform="translate(168,51)"/>
<path d="M0 0 C2.375 1.625 2.375 1.625 4 4 C4 5.98 4 7.96 4 10 C0.04 10 -3.92 10 -8 10 C-7.34 11.65 -6.68 13.3 -6 15 C-2.7 15.33 0.6 15.66 4 16 C4 16.99 4 17.98 4 19 C0.50797535 20.74601232 -3.18982279 20.55838804 -7 20 C-10.0625 18.0625 -10.0625 18.0625 -12 15 C-12.94728069 10.32280161 -12.66588027 7.06540843 -10.125 3 C-6.76361289 -0.16365846 -4.58160979 -0.45816098 0 0 Z " fill="#E6ECF2" transform="translate(228,51)"/>
<path d="M0 0 C1.32 0 2.64 0 4 0 C5.32 3.3 6.64 6.6 8 10 C9.66905241 6.66189518 10.8741386 3.53842155 12 0 C13.65 0 15.3 0 17 0 C15.92845874 3.19158473 14.84063688 6.37739515 13.75 9.5625 C13.44964844 10.45775391 13.14929688 11.35300781 12.83984375 12.27539062 C8.13789408 25.93105296 8.13789408 25.93105296 4 28 C2.00039988 28.039992 -0.00047242 28.04346799 -2 28 C-2 27.01 -2 26.02 -2 25 C-0.02 24.67 1.96 24.34 4 24 C5.19982778 18.39601398 4.67696793 15.04476522 2.5625 9.75 C0 3.24250681 0 3.24250681 0 0 Z " fill="#ECF1F5" transform="translate(286,52)"/>
<path d="M0 0 C1.670625 0.061875 1.670625 0.061875 3.375 0.125 C3.375 1.115 3.375 2.105 3.375 3.125 C2.1684375 3.49625 2.1684375 3.49625 0.9375 3.875 C-1.796081 4.84738859 -1.796081 4.84738859 -2.4375 7.25 C-2.499375 7.86875 -2.56125 8.4875 -2.625 9.125 C-0.975 9.125 0.675 9.125 2.375 9.125 C2.375 10.115 2.375 11.105 2.375 12.125 C1.055 12.125 -0.265 12.125 -1.625 12.125 C-1.625 17.405 -1.625 22.685 -1.625 28.125 C-3.275 28.125 -4.925 28.125 -6.625 28.125 C-6.625 22.845 -6.625 17.565 -6.625 12.125 C-7.615 12.125 -8.605 12.125 -9.625 12.125 C-9.625 10.805 -9.625 9.485 -9.625 8.125 C-8.635 8.125 -7.645 8.125 -6.625 8.125 C-6.50125 7.17625 -6.3775 6.2275 -6.25 5.25 C-5.34326729 0.71633645 -4.65257101 0.16043348 0 0 Z " fill="#D7E2EA" transform="translate(340.625,42.875)"/>
<path d="M0 0 C1.32 0 2.64 0 4 0 C4 2.31 4 4.62 4 7 C5.65 7 7.3 7 9 7 C9 7.99 9 8.98 9 10 C7.35 10 5.7 10 4 10 C4 13.96 4 17.92 4 22 C5.65 22 7.3 22 9 22 C9 23.32 9 24.64 9 26 C5.625 26.125 5.625 26.125 2 26 C0 24 0 24 -0.1953125 20.7421875 C-0.17210937 19.46601562 -0.14890625 18.18984375 -0.125 16.875 C-0.10695313 15.59367187 -0.08890625 14.31234375 -0.0703125 12.9921875 C-0.04710937 12.00476562 -0.02390625 11.01734375 0 10 C-1.32 10 -2.64 10 -4 10 C-4 8.68 -4 7.36 -4 6 C-2.68 6 -1.36 6 0 6 C0 4.02 0 2.04 0 0 Z " fill="#E8EDF2" transform="translate(274,45)"/>
<path d="M0 0 C1.65 0 3.3 0 5 0 C5.50559908 1.43554025 6.0042749 2.8735202 6.5 4.3125 C6.7784375 5.11300781 7.056875 5.91351563 7.34375 6.73828125 C8 9 8 9 8 12 C8.66 12 9.32 12 10 12 C10.12375 10.948125 10.2475 9.89625 10.375 8.8125 C10.91140782 5.54041229 11.63880035 2.99463924 13 0 C14.32 0 15.64 0 17 0 C15.70024676 6.71539173 13.70071112 12.72019113 11 19 C9.35 18.67 7.7 18.34 6 18 C4.02 12.06 2.04 6.12 0 0 Z " fill="#EBF0F4" transform="translate(198,52)"/>
<path d="M0 0 C0 1.32 0 2.64 0 4 C-2.31 4 -4.62 4 -7 4 C-6.28360801 7.28843538 -6.28360801 7.28843538 -3 8.625 C-2.01 9.07875 -1.02 9.5325 0 10 C0.33 10.33 0.66 10.66 1 11 C0.75 14.4375 0.75 14.4375 0 18 C-3.08888522 20.05925681 -3.70935927 20.2390374 -7.1875 20.125 C-8.445625 20.08375 -9.70375 20.0425 -11 20 C-11 18.68 -11 17.36 -11 16 C-7.535 15.505 -7.535 15.505 -4 15 C-4 14.34 -4 13.68 -4 13 C-4.969375 12.525625 -5.93875 12.05125 -6.9375 11.5625 C-10 10 -10 10 -11 9 C-11.3125 6.125 -11.3125 6.125 -11 3 C-7.91446809 -0.70263829 -4.55791101 -0.2629564 0 0 Z " fill="#E0E8EE" transform="translate(259,51)"/>
<path d="M0 0 C0.99 0 1.98 0 3 0 C3 1.32 3 2.64 3 4 C2.19175781 4.43957031 1.38351563 4.87914062 0.55078125 5.33203125 C-2.33682922 6.79776942 -2.33682922 6.79776942 -2.70703125 10.13671875 C-2.74183594 11.30847656 -2.77664062 12.48023438 -2.8125 13.6875 C-2.86019531 14.86699219 -2.90789062 16.04648438 -2.95703125 17.26171875 C-2.97121094 18.16535156 -2.98539063 19.06898437 -3 20 C-4.32 20 -5.64 20 -7 20 C-7 14.72 -7 9.44 -7 4 C-7.99 4 -8.98 4 -10 4 C-10 3.01 -10 2.02 -10 1 C-7 1 -4 1 -1 1 C-0.67 0.67 -0.34 0.34 0 0 Z " fill="#EAEFF4" transform="translate(243,51)"/>
<path d="M0 0 C1.010625 0.0825 2.02125 0.165 3.0625 0.25 C5.59025351 4.04163027 5.28693035 7.05874031 5.1875 11.4375 C5.17847656 12.18708984 5.16945312 12.93667969 5.16015625 13.70898438 C5.13662578 15.55612654 5.10075561 17.40310412 5.0625 19.25 C3.4125 19.25 1.7625 19.25 0.0625 19.25 C0.02511719 18.11820313 -0.01226562 16.98640625 -0.05078125 15.8203125 C-0.11643082 14.33850795 -0.18287851 12.85673861 -0.25 11.375 C-0.27255859 10.62863281 -0.29511719 9.88226563 -0.31835938 9.11328125 C-0.41561945 7.150396 -0.66792294 5.19671678 -0.9375 3.25 C-1.9275 2.59 -2.9175 1.93 -3.9375 1.25 C-2.9375 0.25 -2.9375 0.25 0 0 Z " fill="#D2DDE7" transform="translate(181.9375,51.75)"/>
<path d="M0 0 C2.5 0.25 2.5 0.25 4.5 2.25 C4.765625 4.125 4.765625 4.125 4.75 6.25 C4.75515625 6.95125 4.7603125 7.6525 4.765625 8.375 C4.5 10.25 4.5 10.25 2.5 12.25 C0 12.5 0 12.5 -2.5 12.25 C-4.5 10.25 -4.5 10.25 -4.765625 8.375 C-4.76046875 7.67375 -4.7553125 6.9725 -4.75 6.25 C-4.75515625 5.54875 -4.7603125 4.8475 -4.765625 4.125 C-4.31971142 0.97737476 -3.03899237 0.30389924 0 0 Z " fill="#0A487E" transform="translate(320.5,54.75)"/>
<path d="M0 0 C2.31 0 4.62 0 7 0 C7 6.27 7 12.54 7 19 C5.68 19 4.36 19 3 19 C3 13.39 3 7.78 3 2 C2.01 2 1.02 2 0 2 C0 1.34 0 0.68 0 0 Z " fill="#F3F6F8" transform="translate(261,52)"/>
<path d="M0 0 C1.98 0 3.96 0 6 0 C6 6.27 6 12.54 6 19 C4.68 19 3.36 19 2 19 C2 13.39 2 7.78 2 2 C1.34 2 0.68 2 0 2 C0 1.34 0 0.68 0 0 Z " fill="#EAEFF4" transform="translate(189,52)"/>
<path d="M0 0 C1.32 0 2.64 0 4 0 C4 5.94 4 11.88 4 18 C3.34 18 2.68 18 2 18 C2 18.66 2 19.32 2 20 C1.34 20 0.68 20 0 20 C0 13.4 0 6.8 0 0 Z " fill="#E5EBF1" transform="translate(145,45)"/>
<path d="M0 0 C0.99 0 1.98 0 3 0 C3 5.28 3 10.56 3 16 C2.34 16 1.68 16 1 16 C0.67 16.66 0.34 17.32 0 18 C0 12.06 0 6.12 0 0 Z " fill="#FBFCFD" transform="translate(162,45)"/>
<path d="M0 0 C1.051875 0.3403125 1.051875 0.3403125 2.125 0.6875 C3.79019519 1.02810811 5.45657466 1.36308396 7.125 1.6875 C6.795 3.0075 6.465 4.3275 6.125 5.6875 C4.359375 6.33984375 4.359375 6.33984375 2.125 6.6875 C0.203125 5.69140625 0.203125 5.69140625 -1.625 4.25 C-2.23859375 3.77691406 -2.8521875 3.30382812 -3.484375 2.81640625 C-3.94328125 2.44386719 -4.4021875 2.07132813 -4.875 1.6875 C-1.875 -0.3125 -1.875 -0.3125 0 0 Z " fill="#144F83" transform="translate(195.875,132.3125)"/>
<path d="M0 0 C2.0625 0.4375 2.0625 0.4375 4 1 C4.33 2.32 4.66 3.64 5 5 C2.36 5 -0.28 5 -3 5 C-1.125 1.125 -1.125 1.125 0 0 Z " fill="#2D5F8F" transform="translate(223,54)"/>
<path d="M0 0 C2.31 0 4.62 0 7 0 C7 0.66 7 1.32 7 2 C7.99 1.34 8.98 0.68 10 0 C12.6875 -0.125 12.6875 -0.125 15 0 C13.02 0.99 13.02 0.99 11 2 C11.66 2.66 12.32 3.32 13 4 C8.25 5.125 8.25 5.125 6 4 C6 3.01 6 2.02 6 1 C4.02 1 2.04 1 0 1 C0 0.67 0 0.34 0 0 Z " fill="#A6BDD0" transform="translate(168,51)"/>
<path d="M0 0 C0 1.32 0 2.64 0 4 C-2.375 5.0625 -2.375 5.0625 -5 6 C-5.66 5.67 -6.32 5.34 -7 5 C-5.64703851 0.94111554 -4.27479763 0 0 0 Z " fill="#DFE7EE" transform="translate(246,51)"/>
<path d="M0 0 C1.98 0.495 1.98 0.495 4 1 C3.67 2.32 3.34 3.64 3 5 C1.68 4.67 0.36 4.34 -1 4 C-0.67 2.68 -0.34 1.36 0 0 Z " fill="#D8E2EA" transform="translate(192,43)"/>
<path d="M0 0 C1.32 0.66 2.64 1.32 4 2 C3.67 2.99 3.34 3.98 3 5 C1.68 5 0.36 5 -1 5 C-0.67 3.35 -0.34 1.7 0 0 Z " fill="#DCE5ED" transform="translate(265,43)"/>
</svg>
