<?xml version="1.0" encoding="UTF-8"?>
<svg version="1.1" xmlns="http://www.w3.org/2000/svg" width="491" height="193">
<path d="M0 0 C162.03 0 324.06 0 491 0 C491 63.69 491 127.38 491 193 C328.97 193 166.94 193 0 193 C0 129.31 0 65.62 0 0 Z " fill="#FF914E" transform="translate(0,0)"/>
<path d="M0 0 C4.33125 -0.061875 8.6625 -0.12375 13.125 -0.1875 C14.47996582 -0.21481201 15.83493164 -0.24212402 17.23095703 -0.27026367 C18.85300049 -0.28150269 18.85300049 -0.28150269 20.5078125 -0.29296875 C21.60754395 -0.3086792 22.70727539 -0.32438965 23.84033203 -0.34057617 C28.31533014 0.14177759 31.68489066 1.6626478 34.84765625 4.87890625 C36.9449668 8.73937956 36.63996198 12.74046814 36 17 C34.125 20.125 34.125 20.125 32 22 C31.34 22 30.68 22 30 22 C30 22.66 30 23.32 30 24 C30.639375 24.309375 31.27875 24.61875 31.9375 24.9375 C34 26 34 26 35 27 C35.07313567 29.53049402 35.09247527 32.03304837 35.0625 34.5625 C35.05798828 35.27341797 35.05347656 35.98433594 35.04882812 36.71679688 C35.03700864 38.47790013 35.01907263 40.23896036 35 42 C35.66 42 36.32 42 37 42 C37 42.66 37 43.32 37 44 C35.35425434 44.02688151 33.70838587 44.04634123 32.0625 44.0625 C31.14597656 44.07410156 30.22945312 44.08570313 29.28515625 44.09765625 C27 44 27 44 26 43 C25.71471529 39.37733706 25.55087772 35.75469566 25.37890625 32.125 C25.25386719 31.09375 25.12882812 30.0625 25 29 C20.45398272 26.72699136 13.91320403 27.31265844 9 27 C9 32.61 9 38.22 9 44 C6.03 44 3.06 44 0 44 C0 29.48 0 14.96 0 0 Z " fill="#FFF9F6" transform="translate(156,64)"/>
<path d="M0 0 C1.51400391 0.01740234 1.51400391 0.01740234 3.05859375 0.03515625 C4.07050781 0.04417969 5.08242187 0.05320313 6.125 0.0625 C7.29869141 0.07990234 7.29869141 0.07990234 8.49609375 0.09765625 C10.47925753 5.46459322 12.4564994 10.83366882 14.43017578 16.20410156 C15.5295833 19.18856743 16.63581704 22.17045294 17.7421875 25.15234375 C18.47287708 27.13403317 19.20335048 29.11580232 19.93359375 31.09765625 C20.28744141 32.04656738 20.64128906 32.99547852 21.00585938 33.97314453 C21.33134766 34.8598584 21.65683594 35.74657227 21.9921875 36.66015625 C22.28279053 37.44519531 22.57339355 38.23023438 22.87280273 39.0390625 C23.49609375 41.09765625 23.49609375 41.09765625 23.49609375 44.09765625 C20.19609375 44.09765625 16.89609375 44.09765625 13.49609375 44.09765625 C12.83609375 41.12765625 12.17609375 38.15765625 11.49609375 35.09765625 C3.08109375 35.59265625 3.08109375 35.59265625 -5.50390625 36.09765625 C-6.49390625 38.73765625 -7.48390625 41.37765625 -8.50390625 44.09765625 C-11.47390625 44.09765625 -14.44390625 44.09765625 -17.50390625 44.09765625 C-16.83590482 38.93652558 -15.33349579 34.32765397 -13.59765625 29.453125 C-13.31289429 28.6427327 -13.02813232 27.83234039 -12.73474121 26.99739075 C-12.13524863 25.29471149 -11.53335737 23.59287508 -10.92919922 21.8918457 C-10.00146791 19.27828709 -9.08220933 16.66186094 -8.1640625 14.04492188 C-7.57992243 12.38914808 -6.99530396 10.73354297 -6.41015625 9.078125 C-6.13409546 8.29277878 -5.85803467 7.50743256 -5.5736084 6.69828796 C-3.2323076 0.12606504 -3.2323076 0.12606504 0 0 Z " fill="#FFFAF7" transform="translate(243.50390625,63.90234375)"/>
<path d="M0 0 C3.73434986 1.9793657 6.02557001 4.40105304 7.6328125 8.27734375 C7.8203125 11.08984375 7.8203125 11.08984375 7.6328125 13.27734375 C4.9928125 13.27734375 2.3528125 13.27734375 -0.3671875 13.27734375 C-0.6559375 12.63796875 -0.9446875 11.99859375 -1.2421875 11.33984375 C-2.19542201 9.12528296 -2.19542201 9.12528296 -4.3671875 8.27734375 C-6.03163211 8.18175065 -7.70000713 8.1474973 -9.3671875 8.15234375 C-10.6975 8.14847656 -10.6975 8.14847656 -12.0546875 8.14453125 C-14.39395716 8.12606473 -14.39395716 8.12606473 -16.3671875 9.27734375 C-16.3671875 10.92734375 -16.3671875 12.57734375 -16.3671875 14.27734375 C-15.1296875 14.68984375 -13.8921875 15.10234375 -12.6171875 15.52734375 C-11.80378906 15.80191406 -10.99039062 16.07648438 -10.15234375 16.359375 C-8.18896545 17.00649127 -6.21652404 17.62642143 -4.23828125 18.2265625 C-3.18769531 18.55269531 -2.13710938 18.87882812 -1.0546875 19.21484375 C-0.06855469 19.51261719 0.91757812 19.81039062 1.93359375 20.1171875 C5.5714825 21.68079526 7.85846293 23.72864461 9.6328125 27.27734375 C10.32140818 32.19588429 10.19354534 35.38676806 7.5078125 39.65234375 C2.51530725 44.21071811 -1.62818826 45.69667927 -8.3671875 45.65234375 C-9.5428125 45.66007812 -10.7184375 45.6678125 -11.9296875 45.67578125 C-16.88568856 45.10133567 -20.98730811 43.3260242 -24.2421875 39.46484375 C-26.56674126 35.97801312 -26.85434252 34.36944591 -26.3671875 30.27734375 C-23.3971875 30.27734375 -20.4271875 30.27734375 -17.3671875 30.27734375 C-17.0578125 31.08171875 -16.7484375 31.88609375 -16.4296875 32.71484375 C-15.60383405 35.1681478 -15.60383405 35.1681478 -14.3671875 36.27734375 C-12.01405195 36.35006116 -9.65885082 36.36105243 -7.3046875 36.33984375 C-6.01433594 36.33082031 -4.72398437 36.32179687 -3.39453125 36.3125 C-1.89599609 36.29509766 -1.89599609 36.29509766 -0.3671875 36.27734375 C-0.3671875 34.29734375 -0.3671875 32.31734375 -0.3671875 30.27734375 C-4.2919585 27.987894 -7.92569177 26.84525696 -12.3671875 25.83984375 C-17.22195079 24.693999 -20.54722144 23.47785586 -24.3671875 20.27734375 C-26.35082425 16.31007025 -25.91469908 11.59051835 -25.3671875 7.27734375 C-20.71746419 -2.18949292 -9.12469347 -2.78559124 0 0 Z " fill="#FFFAF7" transform="translate(326.3671875,63.72265625)"/>
<path d="M0 0 C2.45862401 -0.05383848 4.9160755 -0.09359038 7.375 -0.125 C8.42300781 -0.15013672 8.42300781 -0.15013672 9.4921875 -0.17578125 C11.32897486 -0.19344267 13.16601963 -0.10303261 15 0 C17 2 17 2 17.3125 4.9375 C17 8 17 8 15.9296875 9.6796875 C12.96025456 11.71140478 10.3521859 11.28492255 6.8125 11.1875 C5.54019531 11.16042969 4.26789063 11.13335937 2.95703125 11.10546875 C1.98121094 11.07066406 1.00539062 11.03585938 0 11 C0 7.37 0 3.74 0 0 Z " fill="#FF914D" transform="translate(166,72)"/>
<path d="M0 0 C0.66 0 1.32 0 2 0 C2.67184618 2.10251861 3.33730968 4.20707763 4 6.3125 C4.37125 7.48425781 4.7425 8.65601562 5.125 9.86328125 C6 13 6 13 6 16 C2.7 16 -0.6 16 -4 16 C-2.83672541 10.59908226 -1.57704144 5.29435341 0 0 Z " fill="#FF9758" transform="translate(245,75)"/>
<path d="M0 0 C1.32 0.33 2.64 0.66 4 1 C4.33 1.99 4.66 2.98 5 4 C5.66 2.68 6.32 1.36 7 0 C7.99 0 8.98 0 10 0 C10 3.3 10 6.6 10 10 C8.02 10 6.04 10 4 10 C3.67 9.34 3.34 8.68 3 8 C2.67 8.66 2.34 9.32 2 10 C1.34 10 0.68 10 0 10 C0 6.7 0 3.4 0 0 Z " fill="#FFD7BF" transform="translate(292,134)"/>
<path d="M0 0 C2.97 0 5.94 0 9 0 C9 2.97 9 5.94 9 9 C6.03 9 3.06 9 0 9 C0 6.03 0 3.06 0 0 Z " fill="#FFFBFA" transform="translate(278,99)"/>
<path d="M0 0 C2.97 0 5.94 0 9 0 C9 2.97 9 5.94 9 9 C6.03 9 3.06 9 0 9 C0 6.03 0 3.06 0 0 Z " fill="#FFF9F5" transform="translate(205,99)"/>
<path d="M0 0 C0.99 0 1.98 0 3 0 C3.66 0.99 4.32 1.98 5 3 C5.33 2.01 5.66 1.02 6 0 C6.99 0 7.98 0 9 0 C9 3.3 9 6.6 9 10 C8.01 10 7.02 10 6 10 C5.34 9.01 4.68 8.02 4 7 C3.67 7.99 3.34 8.98 3 10 C2.01 10 1.02 10 0 10 C0 6.7 0 3.4 0 0 Z " fill="#FFDAC3" transform="translate(198,134)"/>
<path d="M0 0 C2.31 0 4.62 0 7 0 C7.77842938 3.40562852 8.09978121 6.50765756 8 10 C7.34 10 6.68 10 6 10 C6 8.68 6 7.36 6 6 C4.68 6 3.36 6 2 6 C2 7.32 2 8.64 2 10 C1.34 10 0.68 10 0 10 C0 6.7 0 3.4 0 0 Z " fill="#FFDDC9" transform="translate(257,134)"/>
<path d="M0 0 C1.32 0.66 2.64 1.32 4 2 C4 2.66 4 3.32 4 4 C2.35 4 0.7 4 -1 4 C-1 4.66 -1 5.32 -1 6 C0.32 6 1.64 6 3 6 C3 6.66 3 7.32 3 8 C1.68 8 0.36 8 -1 8 C-1 8.66 -1 9.32 -1 10 C0.65 10 2.3 10 4 10 C4 10.66 4 11.32 4 12 C1.69 12 -0.62 12 -3 12 C-3 8.7 -3 5.4 -3 2 C-2.01 2 -1.02 2 0 2 C0 1.34 0 0.68 0 0 Z " fill="#FFEDE3" transform="translate(241,132)"/>
<path d="M0 0 C1.32 0.33 2.64 0.66 4 1 C4 2.98 4 4.96 4 7 C4.66 7 5.32 7 6 7 C6 7.99 6 8.98 6 10 C5.34 10 4.68 10 4 10 C3.67 9.34 3.34 8.68 3 8 C2.67 8.66 2.34 9.32 2 10 C1.34 10 0.68 10 0 10 C0 6.7 0 3.4 0 0 Z " fill="#FFEADD" transform="translate(292,134)"/>
<path d="M0 0 C2.64 0 5.28 0 8 0 C8 0.66 8 1.32 8 2 C7.01 2 6.02 2 5 2 C5 4.64 5 7.28 5 10 C4.34 10 3.68 10 3 10 C3 7.36 3 4.72 3 2 C2.01 2 1.02 2 0 2 C0 1.34 0 0.68 0 0 Z " fill="#FFEADD" transform="translate(218,134)"/>
</svg>
