<?xml version="1.0" encoding="UTF-8"?>
<svg version="1.1" xmlns="http://www.w3.org/2000/svg" width="491" height="193">
<path d="M0 0 C162.03 0 324.06 0 491 0 C491 63.69 491 127.38 491 193 C328.97 193 166.94 193 0 193 C0 129.31 0 65.62 0 0 Z " fill="#252C75" transform="translate(0,0)"/>
<path d="M0 0 C1.04994141 -0.00386719 2.09988281 -0.00773437 3.18164062 -0.01171875 C8.54121122 -0.00497291 13.65864148 0.18154444 18.9375 1.125 C18.9375 3.435 18.9375 5.745 18.9375 8.125 C7.3875 8.125 -4.1625 8.125 -16.0625 8.125 C-16.0625 10.435 -16.0625 12.745 -16.0625 15.125 C-15.17989502 15.10405273 -14.29729004 15.08310547 -13.38793945 15.06152344 C-10.09844431 14.99315905 -6.80970906 14.94311051 -3.51977539 14.90527344 C-2.09875543 14.88521579 -0.67781741 14.85796222 0.74291992 14.82324219 C2.79105895 14.77445989 4.83810275 14.75197461 6.88671875 14.734375 C8.11737061 14.71342773 9.34802246 14.69248047 10.6159668 14.67089844 C14.57481774 15.21213054 16.20719705 16.24398509 18.9375 19.125 C19.39562429 22.04554234 19.5521465 24.292676 19.4375 27.1875 C19.44136719 28.26741211 19.44136719 28.26741211 19.4453125 29.36914062 C19.34855101 34.57974665 19.34855101 34.57974665 17.71337891 36.7487793 C10.77235317 42.12774027 0.36686909 41.53393529 -7.9375 41.375 C-9.58878906 41.36726563 -9.58878906 41.36726563 -11.2734375 41.359375 C-16.01772842 41.31331392 -20.42087657 41.17613233 -25.0625 40.125 C-25.0625 37.815 -25.0625 35.505 -25.0625 33.125 C-13.1825 33.125 -1.3025 33.125 10.9375 33.125 C10.9375 30.155 10.9375 27.185 10.9375 24.125 C10.02460205 24.14594727 9.1117041 24.16689453 8.17114258 24.18847656 C4.76983465 24.25682717 1.36926101 24.30688329 -2.0324707 24.34472656 C-3.50198921 24.36478825 -4.97142841 24.39204478 -6.44067383 24.42675781 C-8.55830487 24.47552141 -10.67487687 24.49802161 -12.79296875 24.515625 C-14.06551514 24.53657227 -15.33806152 24.55751953 -16.64916992 24.57910156 C-20.66334896 24.04506444 -22.29319593 23.03910217 -25.0625 20.125 C-25.7265625 16.59375 -25.7265625 16.59375 -25.6875 12.625 C-25.70039063 11.3153125 -25.71328125 10.005625 -25.7265625 8.65625 C-25.0625 5.125 -25.0625 5.125 -23.0234375 2.71875 C-16.12983069 -0.99179298 -7.63319735 -0.02821884 0 0 Z " fill="#F5F5F9" transform="translate(400.0625,75.875)"/>
<path d="M0 0 C1.2148407 -0.00143509 1.2148407 -0.00143509 2.45422363 -0.00289917 C4.16560951 -0.00357931 5.87699799 -0.00173661 7.58837891 0.00244141 C10.20871777 0.00779201 12.82888522 0.00249081 15.44921875 -0.00390625 C17.11197955 -0.00324544 18.77474023 -0.00196422 20.4375 0 C21.61415222 -0.00303635 21.61415222 -0.00303635 22.8145752 -0.00613403 C26.04399842 0.00779433 28.63292533 0.10420428 31.71875 1.1328125 C31.71875 3.4428125 31.71875 5.7528125 31.71875 8.1328125 C20.82875 8.1328125 9.93875 8.1328125 -1.28125 8.1328125 C-1.28125 10.7728125 -1.28125 13.4128125 -1.28125 16.1328125 C5.97875 16.1328125 13.23875 16.1328125 20.71875 16.1328125 C20.71875 18.7728125 20.71875 21.4128125 20.71875 24.1328125 C13.78875 24.1328125 6.85875 24.1328125 -0.28125 24.1328125 C-0.28125 26.7728125 -0.28125 29.4128125 -0.28125 32.1328125 C10.60875 32.1328125 21.49875 32.1328125 32.71875 32.1328125 C32.71875 34.4428125 32.71875 36.7528125 32.71875 39.1328125 C28.42881188 43.42275062 14.61674044 41.317551 9.09375 41.3203125 C7.14855469 41.33868164 7.14855469 41.33868164 5.1640625 41.35742188 C3.91109375 41.35935547 2.658125 41.36128906 1.3671875 41.36328125 C0.23458496 41.36739014 -0.89801758 41.37149902 -2.06494141 41.37573242 C-5.28125 41.1328125 -5.28125 41.1328125 -11.28125 39.1328125 C-11.28125 26.5928125 -11.28125 14.0528125 -11.28125 1.1328125 C-7.49383999 -0.1296575 -3.94511828 -0.01018036 0 0 Z " fill="#F5F5F8" transform="translate(326.28125,75.8671875)"/>
<path d="M0 0 C2.57161458 0.03255208 5.14322917 0.06510417 7.71484375 0.09765625 C7.71484375 5.37765625 7.71484375 10.65765625 7.71484375 16.09765625 C16.29484375 16.09765625 24.87484375 16.09765625 33.71484375 16.09765625 C33.71484375 10.81765625 33.71484375 5.53765625 33.71484375 0.09765625 C40.71484375 0.09765625 40.71484375 0.09765625 44.71484375 1.09765625 C44.71484375 13.63765625 44.71484375 26.17765625 44.71484375 39.09765625 C38.71484375 41.09765625 38.71484375 41.09765625 33.71484375 41.09765625 C33.71484375 35.48765625 33.71484375 29.87765625 33.71484375 24.09765625 C25.13484375 24.09765625 16.55484375 24.09765625 7.71484375 24.09765625 C7.71484375 29.70765625 7.71484375 35.31765625 7.71484375 41.09765625 C4.08484375 40.76765625 0.45484375 40.43765625 -3.28515625 40.09765625 C-3.309804 34.56177092 -3.32799121 29.02591725 -3.34008789 23.48999023 C-3.34512869 21.60521895 -3.35196123 19.7204516 -3.3605957 17.83569336 C-3.37267242 15.13263989 -3.37838693 12.42963794 -3.3828125 9.7265625 C-3.38797379 8.87864639 -3.39313507 8.03073029 -3.39845276 7.15711975 C-3.3986482 5.13694557 -3.34721836 3.11687691 -3.28515625 1.09765625 C-2.28515625 0.09765625 -2.28515625 0.09765625 0 0 Z " fill="#F5F5F8" transform="translate(136.28515625,75.90234375)"/>
<path d="M0 0 C4.95 0 9.9 0 15 0 C15.76183594 1.4025 16.52367187 2.805 17.30859375 4.25 C18.35134196 6.16678666 19.39432732 8.08344432 20.4375 10 C20.97793945 10.99354492 21.51837891 11.98708984 22.07519531 13.01074219 C25.77712926 19.80089713 29.53283124 26.55696891 33.40795898 33.25 C36 37.78380124 36 37.78380124 36 40 C31.94150823 40.98387679 28.16468745 41.03924323 24 41 C23.52578613 40.03586182 23.05157227 39.07172363 22.56298828 38.07836914 C20.80603006 34.51025065 19.04119619 30.94607731 17.27392578 27.38305664 C16.50939137 25.83887908 15.74701204 24.2936326 14.98681641 22.74731445 C13.89526908 20.52792976 12.79609009 18.31247437 11.6953125 16.09765625 C11.3556546 15.4028566 11.0159967 14.70805695 10.66604614 13.99220276 C9.03280302 10.35736543 9.03280302 10.35736543 6 8 C5.599021 9.28414795 5.599021 9.28414795 5.18994141 10.59423828 C3.98764039 14.03537475 2.55302121 17.21436809 0.9609375 20.4921875 C0.67521881 21.08299103 0.38950012 21.67379456 0.09512329 22.28250122 C-0.808176 24.14834319 -1.71649161 26.0116898 -2.625 27.875 C-3.24252227 29.1482752 -3.85971299 30.42171124 -4.4765625 31.6953125 C-5.98054817 34.79874308 -7.48903927 37.89995825 -9 41 C-10.258125 41.020625 -11.51625 41.04125 -12.8125 41.0625 C-13.87404297 41.07990234 -13.87404297 41.07990234 -14.95703125 41.09765625 C-17 41 -17 41 -20 40 C-19.41295227 36.26348687 -18.36116523 33.45383046 -16.5234375 30.15625 C-16.02038086 29.24504395 -15.51732422 28.33383789 -14.99902344 27.39501953 C-14.4630957 26.43966309 -13.92716797 25.48430664 -13.375 24.5 C-12.28360078 22.5287861 -11.19245414 20.55743234 -10.1015625 18.5859375 C-9.57079102 17.63170898 -9.04001953 16.67748047 -8.49316406 15.69433594 C-6.54934636 12.18681923 -4.64324039 8.65999773 -2.75 5.125 C-1.8425 3.43375 -0.935 1.7425 0 0 Z " fill="#F5F5F9" transform="translate(214,76)"/>
<path d="M0 0 C0.84954254 -0.00095673 1.69908508 -0.00191345 2.57437134 -0.00289917 C4.37152175 -0.00357957 6.16867463 -0.00173501 7.96582031 0.00244141 C10.70904101 0.00777841 13.45209699 0.00249853 16.1953125 -0.00390625 C17.94270869 -0.00324518 19.69010478 -0.00196344 21.4375 0 C22.2553598 -0.00202423 23.0732196 -0.00404846 23.91586304 -0.00613403 C27.86152729 0.0100027 31.49913978 0.15784651 35.3515625 1.1328125 C35.3515625 3.4428125 35.3515625 5.7528125 35.3515625 8.1328125 C29.4115625 8.1328125 23.4715625 8.1328125 17.3515625 8.1328125 C17.3515625 18.6928125 17.3515625 29.2528125 17.3515625 40.1328125 C13.7215625 40.1328125 10.0915625 40.1328125 6.3515625 40.1328125 C6.3515625 29.5728125 6.3515625 19.0128125 6.3515625 8.1328125 C0.4115625 8.1328125 -5.5284375 8.1328125 -11.6484375 8.1328125 C-11.6484375 5.8228125 -11.6484375 3.5128125 -11.6484375 1.1328125 C-7.75470318 -0.16509894 -4.05762095 -0.00999328 0 0 Z " fill="#F7F7FA" transform="translate(82.6484375,75.8671875)"/>
<path d="M0 0 C3.3 0 6.6 0 10 0 C10 10.23 10 20.46 10 31 C19.57 31 29.14 31 39 31 C39 33.31 39 35.62 39 38 C31.99488332 39.83467342 25.59887321 40.27685781 18.375 40.1875 C16.87839844 40.1865332 16.87839844 40.1865332 15.3515625 40.18554688 C10.04841241 40.15398051 5.3129055 39.7589865 0 39 C0 26.13 0 13.26 0 0 Z " fill="#FBFBFC" transform="translate(263,77)"/>
<path d="M0 0 C3 1 3 1 4.16674805 2.73413086 C4.52808838 3.47026611 4.88942871 4.20640137 5.26171875 4.96484375 C5.85629883 6.16463867 5.85629883 6.16463867 6.46289062 7.38867188 C6.86701172 8.22978516 7.27113281 9.07089844 7.6875 9.9375 C8.10322266 10.77474609 8.51894531 11.61199219 8.94726562 12.47460938 C12 18.70539563 12 18.70539563 12 21 C11.01 21 10.02 21 9 21 C8.71125 21.78375 8.4225 22.5675 8.125 23.375 C7 26 7 26 5 28 C1.625 28.4375 1.625 28.4375 -2 28 C-5.4310793 24.84711632 -7.1208166 21.54858959 -8 17 C-7.09974965 13.83816325 -5.64637805 11.0298966 -4.125 8.125 C-3.73441406 7.34125 -3.34382812 6.5575 -2.94140625 5.75 C-1.97860512 3.82439774 -0.99163274 1.91091459 0 0 Z " fill="#2C347B" transform="translate(220,84)"/>
<path d="M0 0 C1.9375 1.0625 1.9375 1.0625 3 3 C3.36528977 6.4093712 3.6140629 8.88023824 1.9375 11.9375 C-1.11976176 13.6140629 -3.5906288 13.36528977 -7 13 C-8.9375 11.9375 -8.9375 11.9375 -10 10 C-10.36528977 6.5906288 -10.6140629 4.11976176 -8.9375 1.0625 C-5.88023824 -0.6140629 -3.4093712 -0.36528977 0 0 Z " fill="#5DBCD2" transform="translate(225,99)"/>
<path d="M0 0 C1.29824773 4.54386707 1.01675964 8.42458161 0 13 C-1 11 -2 9 -3 7 C-2.06421005 4.64018187 -1.06652192 2.30368736 0 0 Z " fill="#303E81" transform="translate(215,94)"/>
</svg>
