<?xml version="1.0" encoding="UTF-8"?>
<svg version="1.1" xmlns="http://www.w3.org/2000/svg" width="491" height="193">
<path d="M0 0 C162.03 0 324.06 0 491 0 C491 63.69 491 127.38 491 193 C328.97 193 166.94 193 0 193 C0 129.31 0 65.62 0 0 Z " fill="#D8171B" transform="translate(0,0)"/>
<path d="M0 0 C2.10448441 1.21130207 3.74943676 2.49617798 5.515625 4.16015625 C6.11375 4.69511719 6.711875 5.23007813 7.328125 5.78125 C11.1677689 9.91420003 12.00223054 13.56302404 12.265625 19.16015625 C12.00618126 24.79551562 11.1001886 28.40349663 7.30859375 32.609375 C4.54453697 35.00007335 1.81311485 36.57482459 -1.484375 38.16015625 C-2.474375 38.65515625 -2.474375 38.65515625 -3.484375 39.16015625 C-10.67087946 39.87269919 -16.87720703 40.09165335 -22.83203125 35.66015625 C-27.13065079 31.75786334 -30.23247904 28.25310829 -30.72265625 22.234375 C-30.97140995 10.88335093 -30.97140995 10.88335093 -26.484375 6.16015625 C-18.94115366 -1.02002235 -10.25116834 -3.46541068 0 0 Z " fill="#FDF7F7" transform="translate(298.484375,86.83984375)"/>
<path d="M0 0 C5.17223979 1.72407993 9.93266169 5.44309165 13 10 C12.65636639 13.39179096 11.13598664 15.39966844 9 18 C5.15136797 17.77360988 3.50532494 16.69595362 1 13.9375 C-1.35857291 11.37478807 -1.35857291 11.37478807 -4.75 10.5 C-7.18854556 10.83062856 -7.18854556 10.83062856 -9 13 C-9.83675394 17.28836393 -8.77716074 19.77300016 -6.5 23.3125 C-3.04702509 28.14666488 0.69286421 32.89658009 5 37 C5.66 37 6.32 37 7 37 C8.63091008 34.96331279 8.63091008 34.96331279 10.30078125 32.328125 C11.27241211 30.86632812 11.27241211 30.86632812 12.26367188 29.375 C13.61887002 27.30796756 14.97305343 25.24026945 16.32617188 23.171875 C16.97779297 22.1921875 17.62941406 21.2125 18.30078125 20.203125 C18.89028564 19.30239258 19.47979004 18.40166016 20.0871582 17.47363281 C22.75490889 14.02377321 25.25798751 11.25430839 29.67578125 10.609375 C30.98095703 10.67898437 30.98095703 10.67898437 32.3125 10.75 C33.63701172 10.80414063 33.63701172 10.80414063 34.98828125 10.859375 C35.98408203 10.92898437 35.98408203 10.92898437 37 11 C35.63271004 14.78784302 33.89698152 17.84084373 31.5859375 21.1328125 C30.90660156 22.10476562 30.22726562 23.07671875 29.52734375 24.078125 C28.81707031 25.08359375 28.10679687 26.0890625 27.375 27.125 C26.68792969 28.10726562 26.00085938 29.08953125 25.29296875 30.1015625 C10.74189173 50.84981492 10.74189173 50.84981492 7.43359375 51.51953125 C2.15997232 50.72158853 -0.35580472 47.45253694 -3.9375 43.6875 C-4.64535645 42.96071045 -5.35321289 42.2339209 -6.08251953 41.48510742 C-12.98163011 34.24974707 -20.23030259 25.9272767 -21.375 15.625 C-20.78407167 9.9126928 -18.60090645 6.44843917 -14.375 2.625 C-9.64734735 -0.60970971 -5.62173259 -0.46051287 0 0 Z " fill="#FDF7F7" transform="translate(340,75)"/>
<path d="M0 0 C5.0927971 -0.2995763 7.86686509 -0.00950046 12 3 C13.6953125 5.26953125 13.6953125 5.26953125 15.125 7.8125 C15.62773438 8.69421875 16.13046875 9.5759375 16.6484375 10.484375 C17.72495808 12.48807226 18.7471303 14.52094382 19.75 16.5625 C20.76170458 19.12743809 20.76170458 19.12743809 23 20 C23.226875 19.195625 23.45375 18.39125 23.6875 17.5625 C26.07384494 11.08527802 29.24661318 4.05352253 35 0 C38.04868711 -0.3907255 40.94649937 -0.29936281 44 0 C44 3.89132942 42.39702307 6.53110798 40.640625 9.8984375 C40.12214996 10.90639877 40.12214996 10.90639877 39.59320068 11.9347229 C38.85971868 13.35679038 38.12316548 14.77727734 37.38378906 16.19628906 C36.26009005 18.35561076 35.14892821 20.52104213 34.0390625 22.6875 C33.32366482 24.07069971 32.60754188 25.45352459 31.890625 26.8359375 C31.56128967 27.47880707 31.23195435 28.12167664 30.89263916 28.7840271 C28.93115617 32.5263253 26.88566577 35.90028358 24 39 C21.25 39.3125 21.25 39.3125 19 39 C18.39414063 37.90945312 17.78828125 36.81890625 17.1640625 35.6953125 C16.76356689 34.97480713 16.36307129 34.25430176 15.95043945 33.51196289 C15.05962936 31.90771713 14.17016429 30.30272384 13.28198242 28.69702148 C10.9101899 24.41377203 8.51687794 20.14563388 6.07421875 15.90234375 C5.61128418 15.09071777 5.14834961 14.2790918 4.67138672 13.44287109 C3.77618146 11.87473396 2.87303246 10.31110103 1.96142578 8.75244141 C0.89678246 6.87688412 -0.06174572 4.94187009 -1 3 C-0.67 2.01 -0.34 1.02 0 0 Z " fill="#FDF7F7" transform="translate(112,87)"/>
<path d="M0 0 C5.00263851 -0.29427285 8.10086386 -0.28348307 12 3 C13.88005292 5.55273241 15.44372349 8.24114619 17 11 C17.39703125 11.66257812 17.7940625 12.32515625 18.203125 13.0078125 C21 17.71522887 21 17.71522887 21 20 C21.66 20 22.32 20 23 20 C23.27199219 19.28972656 23.54398438 18.57945313 23.82421875 17.84765625 C29.94295592 3.02852204 29.94295592 3.02852204 36 0 C38.75855335 -0.29390195 41.21024307 -0.18913606 44 0 C43.46551053 5.1246652 41.65421747 9.09019897 39.21875 13.55078125 C38.84520386 14.25019333 38.47165771 14.94960541 38.08679199 15.67021179 C36.89914243 17.88868226 35.6995657 20.10045463 34.5 22.3125 C33.69326607 23.81796074 32.88726861 25.32381637 32.08203125 26.83007812 C26.19082995 37.80917005 26.19082995 37.80917005 25 39 C23.00041636 39.04080783 20.99954746 39.04254356 19 39 C18.60208252 38.25951416 18.20416504 37.51902832 17.79418945 36.75610352 C16.2943635 33.96579551 14.7939704 31.17579339 13.29321289 28.38598633 C12.64813448 27.18656123 12.00327161 25.98702019 11.35864258 24.78735352 C10.42327934 23.04672029 9.48703371 21.30656134 8.55078125 19.56640625 C7.94830566 18.44379395 7.34583008 17.32118164 6.72509766 16.16455078 C4.83334562 12.69428615 2.863224 9.27574421 0.83666992 5.88256836 C0 4 0 4 0 0 Z " fill="#FDF8F8" transform="translate(179,87)"/>
<path d="M0 0 C3.3 0 6.6 0 10 0 C12 2 12 2 12.24723816 4.39772034 C12.24581314 5.40286179 12.24438812 6.40800323 12.24291992 7.44360352 C12.24599655 8.58140762 12.24907318 9.71921173 12.25224304 10.89149475 C12.24505753 12.12484055 12.23787201 13.35818634 12.23046875 14.62890625 C12.22978142 16.51886574 12.22978142 16.51886574 12.2290802 18.44700623 C12.22605464 21.11446525 12.21922585 23.7815807 12.20581055 26.44897461 C12.18880341 29.87464028 12.18499669 33.3001586 12.18575573 36.72586155 C12.1854191 39.98522445 12.17658533 43.24455623 12.16796875 46.50390625 C12.16685593 47.73927628 12.1657431 48.9746463 12.16459656 50.24745178 C12.15821671 51.38210373 12.15183685 52.51675568 12.14526367 53.68579102 C12.14145187 54.69013687 12.13764008 55.69448273 12.13371277 56.72926331 C12 59 12 59 11 60 C7.37 60 3.74 60 0 60 C0 40.2 0 20.4 0 0 Z " fill="#FBF0F0" transform="translate(229,66)"/>
<path d="M0 0 C3.3 0 6.6 0 10 0 C10 12.87 10 25.74 10 39 C6.37 39 2.74 39 -1 39 C-1.02464849 33.60653012 -1.04283531 28.21309275 -1.05493164 22.81958008 C-1.05997231 20.98331125 -1.06680477 19.14704646 -1.07543945 17.31079102 C-1.08751672 14.67723599 -1.09323081 12.04373384 -1.09765625 9.41015625 C-1.10281754 8.58411392 -1.10797882 7.75807159 -1.11329651 6.90699768 C-1.11349205 4.93763632 -1.06204152 2.96838386 -1 1 C-0.67 0.67 -0.34 0.34 0 0 Z " fill="#FDFCFC" transform="translate(251,87)"/>
<path d="M0 0 C0.8146875 0.00257812 1.629375 0.00515625 2.46875 0.0078125 C3.2834375 0.00523438 4.098125 0.00265625 4.9375 0 C6.96875 0.1328125 6.96875 0.1328125 7.96875 1.1328125 C8.06974488 3.86005529 8.10845529 6.56143773 8.1015625 9.2890625 C8.10251923 10.10652954 8.10347595 10.92399658 8.10446167 11.76623535 C8.10514345 13.49796628 8.10328929 15.22969974 8.09912109 16.96142578 C8.09377279 19.62147732 8.09906612 22.28136 8.10546875 24.94140625 C8.10480797 26.61979204 8.1035268 28.29817773 8.1015625 29.9765625 C8.10358673 30.77759399 8.10561096 31.57862549 8.10769653 32.40393066 C8.08370079 38.01786171 8.08370079 38.01786171 6.96875 39.1328125 C5.28266034 39.20486761 3.59374341 39.21667318 1.90625 39.1953125 C0.98714844 39.18628906 0.06804687 39.17726562 -0.87890625 39.16796875 C-1.58917969 39.15636719 -2.29945313 39.14476562 -3.03125 39.1328125 C-3.05589849 33.73934262 -3.07408531 28.34590525 -3.08618164 22.95239258 C-3.09122231 21.11612375 -3.09805477 19.27985896 -3.10668945 17.44360352 C-3.11876672 14.81004849 -3.12448081 12.17654634 -3.12890625 9.54296875 C-3.13406754 8.71692642 -3.13922882 7.89088409 -3.14454651 7.03981018 C-3.14474205 5.07044882 -3.09329152 3.10119636 -3.03125 1.1328125 C-2.03125 0.1328125 -2.03125 0.1328125 0 0 Z " fill="#FDFBFB" transform="translate(165.03125,86.8671875)"/>
<path d="M0 0 C3.62342508 1.6470114 6.16816086 3.4327343 8 7 C8.84457478 13.54545455 8.84457478 13.54545455 6.9453125 16.81640625 C5.173471 18.99189211 3.52592891 20.73703554 1 22 C-4.34243433 22.35032356 -7.64786539 22.4561069 -12 19 C-14.81725233 14.7741215 -14.79958384 10.96375312 -14 6 C-9.77546995 0.55257968 -6.76988121 -0.458975 0 0 Z " fill="#D81A1D" transform="translate(292,95)"/>
<path d="M0 0 C1 1 1 1 1.25 3.875 C1 7 1 7 -0.1875 8.875 C-2.65507108 10.40659584 -4.14519831 10.42822025 -7 10 C-8.8125 8.8125 -8.8125 8.8125 -10 7 C-10.42674516 4.15503228 -10.36066991 2.63647631 -8.9375 0.125 C-5.85798867 -1.66310335 -3.35666727 -0.74592606 0 0 Z " fill="#FCF6F6" transform="translate(260,71)"/>
<path d="M0 0 C1.875 1.0625 1.875 1.0625 3 3 C2.6875 6.6875 2.6875 6.6875 2 10 C-4.36 11.32 -4.36 11.32 -7 10 C-8.58777289 6.82445422 -7.80754931 4.3544356 -7 1 C-4.45132831 -0.27433584 -2.82594567 -0.27570202 0 0 Z " fill="#FCF4F4" transform="translate(170,70)"/>
</svg>
