<?xml version="1.0" encoding="UTF-8"?>
<svg version="1.1" xmlns="http://www.w3.org/2000/svg" width="491" height="193">
<path d="M0 0 C162.03 0 324.06 0 491 0 C491 63.69 491 127.38 491 193 C328.97 193 166.94 193 0 193 C0 129.31 0 65.62 0 0 Z " fill="#2BABF6" transform="translate(0,0)"/>
<path d="M0 0 C2.96117299 2.16824164 5.39341286 4.39341286 8 7 C8.33 3.37 8.66 -0.26 9 -4 C14.28 -4 19.56 -4 25 -4 C25 14.48 25 32.96 25 52 C34.9 52 44.8 52 55 52 C55 56.62 55 61.24 55 66 C39.82 66 24.64 66 9 66 C8.67 62.7 8.34 59.4 8 56 C6.948125 57.051875 5.89625 58.10375 4.8125 59.1875 C-3.90448295 66.69845553 -13.9513911 68.99163862 -25.18359375 68.4296875 C-32.49767469 67.60619835 -38.9078985 65.12271878 -45 61 C-45 60.34 -45 59.68 -45 59 C-45.66 59 -46.32 59 -47 59 C-47 61.31 -47 63.62 -47 66 C-64.49 66 -81.98 66 -100 66 C-100 52.25004083 -100 52.25004083 -93.8125 44.875 C-92.52863888 43.24451948 -91.24612074 41.61298073 -89.96484375 39.98046875 C-89.30726074 39.1611084 -88.64967773 38.34174805 -87.97216797 37.49755859 C-84.80725232 33.48950127 -81.84520358 29.34071069 -78.875 25.1875 C-78.34366455 24.45321777 -77.8123291 23.71893555 -77.26489258 22.96240234 C-74.41757902 19.02263707 -71.70037146 15.05055719 -69 11 C-78.9 11 -88.8 11 -99 11 C-99 6.05 -99 1.1 -99 -4 C-81.84 -4 -64.68 -4 -47 -4 C-46.505 -0.535 -46.505 -0.535 -46 3 C-45.35933594 2.59007813 -44.71867187 2.18015625 -44.05859375 1.7578125 C-42.76115234 0.94957031 -42.76115234 0.94957031 -41.4375 0.125 C-40.59058594 -0.40867187 -39.74367187 -0.94234375 -38.87109375 -1.4921875 C-26.71807031 -7.87459165 -11.75662152 -6.47977502 0 0 Z " fill="#FAFDFE" transform="translate(268,63)"/>
<path d="M0 0 C4.21410174 2.99619645 6.56362726 6.64791303 8.203125 11.56640625 C8.90056989 19.18113247 8.70655746 26.14045584 4.203125 32.56640625 C2.05222847 34.64594602 -0.17471371 36.14157888 -2.796875 37.56640625 C-3.56 37.99953125 -4.323125 38.43265625 -5.109375 38.87890625 C-11.73921362 40.57491148 -17.98252507 40.33226866 -23.9765625 36.8984375 C-28.98135277 33.23613389 -32.61220725 28.72667857 -33.796875 22.56640625 C-34.5494981 15.8649677 -34.3212499 10.84365188 -30.2890625 5.28515625 C-21.80046335 -4.4922878 -11.34208299 -6.2595458 0 0 Z " fill="#2CACF6" transform="translate(259.796875,76.43359375)"/>
<path d="M0 0 C1.26391083 2.52782166 0.98414109 4.58778858 0.88476562 7.35888672 C0.64908477 14.34172817 0.99679614 19.7712143 4.125 26.1796875 C5 28 5 28 5 30 C-3.58 30 -12.16 30 -21 30 C-14.62908365 19.53349456 -7.33406545 9.80468013 0 0 Z " fill="#2EACF6" transform="translate(210,85)"/>
</svg>
