<?xml version="1.0" encoding="UTF-8"?>
<svg version="1.1" xmlns="http://www.w3.org/2000/svg" width="491" height="193">
<path d="M0 0 C162.03 0 324.06 0 491 0 C491 63.69 491 127.38 491 193 C328.97 193 166.94 193 0 193 C0 129.31 0 65.62 0 0 Z " fill="#01437A" transform="translate(0,0)"/>
<path d="M0 0 C3.3 0 6.6 0 10 0 C9.67 7.59 9.34 15.18 9 23 C10.82402344 22.96519531 12.64804688 22.93039063 14.52734375 22.89453125 C28.07601 22.71561284 40.77657867 22.90652083 54 26 C55.66563793 26.33843639 57.33188843 26.6739744 59 27 C59 28.98 59 30.96 59 33 C55.04 32.34 51.08 31.68 47 31 C47.33 40.24 47.66 49.48 48 59 C44.7 59 41.4 59 38 59 C38.33 48.77 38.66 38.54 39 28 C24.15 27.505 24.15 27.505 9 27 C9 37.23 9 47.46 9 58 C6.03 58 3.06 58 0 58 C0.33 48.1 0.66 38.2 1 28 C-1.536875 28.61875 -4.07375 29.2375 -6.6875 29.875 C-7.87218872 30.16093018 -7.87218872 30.16093018 -9.08081055 30.45263672 C-12.8561991 31.38538539 -16.42495913 32.43459749 -20 34 C-20 33.34 -20 32.68 -20 32 C-18.5732432 31.18913171 -17.13263964 30.40263346 -15.6875 29.625 C-14.88699219 29.18414062 -14.08648437 28.74328125 -13.26171875 28.2890625 C-10 27 -10 27 1 25 C0.505 12.625 0.505 12.625 0 0 Z " fill="#EFF3F7" transform="translate(174,56)"/>
<path d="M0 0 C0.495 5.445 0.495 5.445 1 11 C-0.051875 9.9171875 -0.051875 9.9171875 -1.125 8.8125 C-7.83338937 2.10411063 -12.29431895 -0.3125 -21.82568359 -0.3125 C-27.31083786 -0.20410261 -31.71841652 0.27959494 -36 4 C-42.51149071 10.89279422 -44.4839744 17.42925604 -44.3203125 26.828125 C-43.62642582 33.69929554 -41.24805406 41.30437268 -36 46 C-28.9809548 50.79056507 -22.41379011 52.23185325 -14 51 C-8.20110879 49.34595385 -4.75746068 46.09686999 -1.12890625 41.390625 C-0.75636719 40.93171875 -0.38382812 40.4728125 0 40 C0.33 40 0.66 40 1 40 C1.28775745 43.05022893 1.41221323 45.95721553 1 49 C-0.9375 50.875 -0.9375 50.875 -4 52 C-4.57363281 52.27457031 -5.14726562 52.54914063 -5.73828125 52.83203125 C-14.15797227 56.41244355 -24.75847726 56.55130269 -33.484375 53.96875 C-41.57347354 50.27322275 -48.20704451 44.47521987 -52 36.3125 C-54.32517449 28.64860251 -54.31100465 19.85505955 -50.9375 12.5625 C-39.6981099 -6.58841609 -19.1108099 -7.94215477 0 0 Z " fill="#F0F4F7" transform="translate(335,60)"/>
<path d="M0 0 C10.23 0 20.46 0 31 0 C31 1.98 31 3.96 31 6 C30.34 6 29.68 6 29 6 C29 5.34 29 4.68 29 4 C22.07 3.67 15.14 3.34 8 3 C8 10.26 8 17.52 8 25 C16.415 24.505 16.415 24.505 25 24 C24.67 25.32 24.34 26.64 24 28 C18.72 27.67 13.44 27.34 8 27 C8 36.24 8 45.48 8 55 C15.92 54.67 23.84 54.34 32 54 C32 53.34 32 52.68 32 52 C32.66 52 33.32 52 34 52 C33.67 53.98 33.34 55.96 33 58 C22.11 58 11.22 58 0 58 C0 38.86 0 19.72 0 0 Z " fill="#F6F8FA" transform="translate(243,56)"/>
<path d="M0 0 C3.3 0 6.6 0 10 0 C9.67 7.26 9.34 14.52 9 22 C6.36 22 3.72 22 1 22 C0.67 14.74 0.34 7.48 0 0 Z " fill="#EFF3F6" transform="translate(212,56)"/>
<path d="M0 0 C0.33 0 0.66 0 1 0 C1.28775745 3.05022893 1.41221323 5.95721553 1 9 C-0.9375 10.875 -0.9375 10.875 -4 12 C-4.72445313 12.27457031 -5.44890625 12.54914063 -6.1953125 12.83203125 C-10.06425547 14.23021361 -12.82250466 15 -17 15 C-16 12 -16 12 -13.92578125 10.859375 C-13.06339844 10.49328125 -12.20101563 10.1271875 -11.3125 9.75 C-6.76272543 7.61851535 -4.0627278 5.34679699 -1.05859375 1.35546875 C-0.70925781 0.90816406 -0.35992187 0.46085937 0 0 Z " fill="#E4EBF1" transform="translate(335,100)"/>
<path d="M0 0 C2.64 0 5.28 0 8 0 C8.79953138 3.28696233 9.09658936 4.71023192 8 8 C8.38932856 10.14255793 8.38932856 10.14255793 9 12 C8.01 11.67 7.02 11.34 6 11 C5.3125 8.9375 5.3125 8.9375 5 7 C4.34 7 3.68 7 3 7 C3 8.65 3 10.3 3 12 C2.01 12 1.02 12 0 12 C0 8.04 0 4.08 0 0 Z " fill="#CFDBE6" transform="translate(254,125)"/>
<path d="M0 0 C6.75 -0.125 6.75 -0.125 9 1 C8.25 5.75 8.25 5.75 6 8 C5.01 8 4.02 8 3 8 C3 9.32 3 10.64 3 12 C2.01 12 1.02 12 0 12 C0 8.04 0 4.08 0 0 Z " fill="#CEDBE5" transform="translate(223,125)"/>
<path d="M0 0 C0.99 0 1.98 0 3 0 C3.50833591 1.24663331 4.00631145 2.49749387 4.5 3.75 C4.7784375 4.44609375 5.056875 5.1421875 5.34375 5.859375 C6 8 6 8 6 12 C5.34 12 4.68 12 4 12 C4 11.34 4 10.68 4 10 C1.36 10.66 -1.28 11.32 -4 12 C-3.52309796 10.37433394 -3.04340334 8.74948689 -2.5625 7.125 C-2.29566406 6.22007812 -2.02882812 5.31515625 -1.75390625 4.3828125 C-1 2 -1 2 0 0 Z " fill="#E9EFF3" transform="translate(241,125)"/>
<path d="M0 0 C0.94875 0.04125 1.8975 0.0825 2.875 0.125 C2.875 0.785 2.875 1.445 2.875 2.125 C1.225 2.125 -0.425 2.125 -2.125 2.125 C-2.125 3.115 -2.125 4.105 -2.125 5.125 C-0.475 5.125 1.175 5.125 2.875 5.125 C3.5 7.5 3.5 7.5 3.875 10.125 C1.875 12.125 1.875 12.125 -1.25 12.25 C-2.673125 12.188125 -2.673125 12.188125 -4.125 12.125 C-4.125 11.135 -4.125 10.145 -4.125 9.125 C-2.475 9.455 -0.825 9.785 0.875 10.125 C0.875 9.135 0.875 8.145 0.875 7.125 C-0.775 6.795 -2.425 6.465 -4.125 6.125 C-4.75 4.25 -4.75 4.25 -5.125 2.125 C-3.125 0.125 -3.125 0.125 0 0 Z " fill="#D8E2EB" transform="translate(285.125,124.875)"/>
<path d="M0 0 C-2.9541184 1.5832978 -5.84447502 2.635437 -9.0625 3.5625 C-11.72779038 4.3360354 -14.36652518 5.12217506 -17 6 C-17 5.34 -17 4.68 -17 4 C-6.81093394 -1.92482916 -6.81093394 -1.92482916 0 0 Z " fill="#CDD9E5" transform="translate(171,84)"/>
<path d="M0 0 C1.98 0 3.96 0 6 0 C6.33 0.99 6.66 1.98 7 3 C6.34 3 5.68 3 5 3 C5 3.66 5 4.32 5 5 C3.35 5 1.7 5 0 5 C0 3.35 0 1.7 0 0 Z " fill="#92ADC5" transform="translate(256,125)"/>
<path d="M0 0 C2.31 0.33 4.62 0.66 7 1 C7 1.66 7 2.32 7 3 C6.34 3 5.68 3 5 3 C5 3.66 5 4.32 5 5 C3.35 5 1.7 5 0 5 C0 3.35 0 1.7 0 0 Z " fill="#91ACC4" transform="translate(225,125)"/>
<path d="M0 0 C0 0.66 0 1.32 0 2 C-1.71484375 3.65625 -1.71484375 3.65625 -3.9375 5.5 C-6.92045179 7.88926999 -6.92045179 7.88926999 -9 11 C-9.66 11 -10.32 11 -11 11 C-9.7672897 6.34309441 -5.30909278 0 0 0 Z " fill="#1B5285" transform="translate(304,61)"/>
<path d="M0 0 C0.99 0 1.98 0 3 0 C3.66 1.32 4.32 2.64 5 4 C4.01 4.33 3.02 4.66 2 5 C1.01 6.485 1.01 6.485 0 8 C-0.66 8 -1.32 8 -2 8 C-1.34 5.36 -0.68 2.72 0 0 Z " fill="#A5BACF" transform="translate(239,129)"/>
<path d="M0 0 C0.66 0 1.32 0 2 0 C1.814375 0.7425 1.62875 1.485 1.4375 2.25 C1.00796892 4.94990963 1.14877026 6.44631077 2 9 C1.01 8.67 0.02 8.34 -1 8 C-1.12375 7.195625 -1.2475 6.39125 -1.375 5.5625 C-1.684375 4.2940625 -1.684375 4.2940625 -2 3 C-2.66 2.67 -3.32 2.34 -4 2 C-2.68 2 -1.36 2 0 2 C0 1.34 0 0.68 0 0 Z " fill="#EAEFF4" transform="translate(261,128)"/>
<path d="M0 0 C2 3 2 3 2 7 C1.34 7 0.68 7 0 7 C0 6.34 0 5.68 0 5 C-1.65 5 -3.3 5 -5 5 C-4.360625 4.731875 -3.72125 4.46375 -3.0625 4.1875 C-0.66868314 3.11332248 -0.66868314 3.11332248 0 0 Z " fill="#CBD8E4" transform="translate(245,130)"/>
</svg>
